<?xml version="1.0" encoding="utf-8"?>
<!-- created with bpmn-js / http://bpmn.io -->
<!DOCTYPE svg PUBLIC "-//W3C//DTD SVG 1.1//EN" "http://www.w3.org/Graphics/SVG/1.1/DTD/svg11.dtd">
<svg xmlns="http://www.w3.org/2000/svg" xmlns:xlink="http://www.w3.org/1999/xlink" width="1379" height="750" viewBox="680 75 1379 750" version="1.1"><defs><pattern id="djs-grid-pattern-374091" width="10" height="10" patternUnits="userSpaceOnUse"><circle cx="0.5" cy="0.5" r="0.5" style="fill: rgb(204, 204, 204);"/></pattern></defs><g class="djs-group"><g class="djs-element djs-shape" data-element-id="Activity_0e55j6j" style="display: block;" transform="matrix(1 0 0 1 990 460)"><g class="djs-visual"><rect x="0" y="0" width="100" height="80" rx="10" ry="10" style="stroke-linecap: round; stroke-linejoin: round; stroke: rgb(34, 36, 42); stroke-width: 2px; fill: white; fill-opacity: 0.95;"/><text lineHeight="1.2" class="djs-label" style="font-family: Arial, sans-serif; font-size: 12px; font-weight: normal; fill: rgb(34, 36, 42);"><tspan x="25.8359375" y="14.799999999999999">Система </tspan><tspan x="17.4296875" y="29.199999999999996">отображает </tspan><tspan x="19.35546875" y="43.599999999999994">интерфейс </tspan><tspan x="14.9609375" y="57.99999999999999">урока (экран </tspan><tspan x="36.55859375" y="72.39999999999999">№ 4)</tspan></text></g><rect class="djs-hit djs-hit-all" x="0" y="0" width="100" height="80" style="fill: none; stroke-opacity: 0; stroke: white; stroke-width: 15px;"/><rect x="-5" y="-5" rx="14" width="110" height="90" class="djs-outline" style="fill: none;"/></g></g><g class="djs-group"><g class="djs-element djs-shape" data-element-id="Activity_0ltlf0s" style="display: block;" transform="matrix(1 0 0 1 830 460)"><g class="djs-visual"><rect x="0" y="0" width="100" height="80" rx="10" ry="10" style="stroke-linecap: round; stroke-linejoin: round; stroke: rgb(34, 36, 42); stroke-width: 2px; fill: white; fill-opacity: 0.95;"/><text lineHeight="1.2" class="djs-label" style="font-family: Arial, sans-serif; font-size: 12px; font-weight: normal; fill: rgb(34, 36, 42);"><tspan x="11.7265625" y="22">Начало урока </tspan><tspan x="14.96484375" y="36.4">через выбор </tspan><tspan x="23.671875" y="50.8">темы или </tspan><tspan x="10.8828125" y="65.19999999999999">кнопку "старт"</tspan></text></g><rect class="djs-hit djs-hit-all" x="0" y="0" width="100" height="80" style="fill: none; stroke-opacity: 0; stroke: white; stroke-width: 15px;"/><rect x="-5" y="-5" rx="14" width="110" height="90" class="djs-outline" style="fill: none;"/></g></g><g class="djs-group"><g class="djs-element djs-shape" data-element-id="Event_1e6q426" style="display: block;" transform="matrix(1 0 0 1 732 482)"><g class="djs-visual"><circle cx="18" cy="18" r="18" style="stroke-linecap: round; stroke-linejoin: round; stroke: rgb(34, 36, 42); stroke-width: 2px; fill: white; fill-opacity: 0.95;"/></g><rect class="djs-hit djs-hit-all" x="0" y="0" width="36" height="36" style="fill: none; stroke-opacity: 0; stroke: white; stroke-width: 15px;"/><circle cx="18" cy="18" r="23" class="djs-outline" style="fill: none;"/></g></g><g class="djs-group"><g class="djs-element djs-shape" data-element-id="Activity_0tx1z47" style="display: block;" transform="matrix(1 0 0 1 1150 460)"><g class="djs-visual"><rect x="0" y="0" width="100" height="80" rx="10" ry="10" style="stroke-linecap: round; stroke-linejoin: round; stroke: rgb(34, 36, 42); stroke-width: 2px; fill: white; fill-opacity: 0.95;"/><text lineHeight="1.2" class="djs-label" style="font-family: Arial, sans-serif; font-size: 12px; font-weight: normal; fill: rgb(34, 36, 42);"><tspan x="12.96875" y="22">Цикл вопрос-</tspan><tspan x="35.0390625" y="36.4">ответ </tspan><tspan x="23.171875" y="50.8">(система-</tspan><tspan x="29.05859375" y="65.19999999999999">клиент)</tspan></text><rect x="0" y="0" width="14" height="14" rx="0" ry="0" style="stroke-linecap: round; stroke-linejoin: round; stroke: rgb(34, 36, 42); stroke-width: 1px; fill: white;" transform="matrix(1 0 0 1 42.5 60)"/><path data-marker="sub-process" d="m42.5,60 m 7,2 l 0,10 m -5,-5 l 10,0" style="fill: white; stroke-linecap: round; stroke-linejoin: round; stroke: rgb(34, 36, 42); stroke-width: 2px;"/></g><rect class="djs-hit djs-hit-all" x="0" y="0" width="100" height="80" style="fill: none; stroke-opacity: 0; stroke: white; stroke-width: 15px;"/><rect x="-5" y="-5" rx="14" width="110" height="90" class="djs-outline" style="fill: none;"/></g></g><g class="djs-group"><g class="djs-element djs-shape" data-element-id="Activity_13shynf" style="display: block;" transform="matrix(1 0 0 1 1810 360)"><g class="djs-visual"><rect x="0" y="0" width="100" height="80" rx="10" ry="10" style="stroke-linecap: round; stroke-linejoin: round; stroke: rgb(34, 36, 42); stroke-width: 2px; fill: white; fill-opacity: 0.95;"/><text lineHeight="1.2" class="djs-label" style="font-family: Arial, sans-serif; font-size: 12px; font-weight: normal; fill: rgb(34, 36, 42);"><tspan x="31.390625" y="14.799999999999999">Окно с </tspan><tspan x="10.796875" y="29.199999999999996">поздравление</tspan><tspan x="17.328125" y="43.599999999999994">м клиента с </tspan><tspan x="8.9609375" y="57.99999999999999">прохождением </tspan><tspan x="34.296875" y="72.39999999999999">урока</tspan></text></g><rect class="djs-hit djs-hit-all" x="0" y="0" width="100" height="80" style="fill: none; stroke-opacity: 0; stroke: white; stroke-width: 15px;"/><rect x="-5" y="-5" rx="14" width="110" height="90" class="djs-outline" style="fill: none;"/></g></g><g class="djs-group"><g class="djs-element djs-shape" data-element-id="Activity_0acpmn4" style="display: block;" transform="matrix(1 0 0 1 1390 540)"><g class="djs-visual"><rect x="0" y="0" width="100" height="80" rx="10" ry="10" style="stroke-linecap: round; stroke-linejoin: round; stroke: rgb(34, 36, 42); stroke-width: 2px; fill: white; fill-opacity: 0.95;"/><text lineHeight="1.2" class="djs-label" style="font-family: Arial, sans-serif; font-size: 12px; font-weight: normal; fill: rgb(34, 36, 42);"><tspan x="10.2734375" y="22">Принудительн</tspan><tspan x="7.625" y="36.4">ое завершение</tspan><tspan x="34.296875" y="50.8">урока </tspan><tspan x="23.66015625" y="65.19999999999999">клиентом</tspan></text></g><rect class="djs-hit djs-hit-all" x="0" y="0" width="100" height="80" style="fill: none; stroke-opacity: 0; stroke: white; stroke-width: 15px;"/><rect x="-5" y="-5" rx="14" width="110" height="90" class="djs-outline" style="fill: none;"/></g></g><g class="djs-group"><g class="djs-element djs-shape" data-element-id="Activity_1x4lemx" style="display: block;" transform="matrix(1 0 0 1 1550 540)"><g class="djs-visual"><rect x="0" y="0" width="100" height="80" rx="10" ry="10" style="stroke-linecap: round; stroke-linejoin: round; stroke: rgb(34, 36, 42); stroke-width: 2px; fill: white; fill-opacity: 0.95;"/><text lineHeight="1.2" class="djs-label" style="font-family: Arial, sans-serif; font-size: 12px; font-weight: normal; fill: rgb(34, 36, 42);"><tspan x="25.8359375" y="7.599999999999996">Система </tspan><tspan x="17.4296875" y="21.999999999999993">отображает </tspan><tspan x="25.46875" y="36.39999999999999">окно для </tspan><tspan x="32.44140625" y="50.79999999999999">подтв. </tspan><tspan x="16.05078125" y="65.19999999999999">завершения </tspan><tspan x="34.296875" y="79.6">урока</tspan></text></g><rect class="djs-hit djs-hit-all" x="0" y="0" width="100" height="80" style="fill: none; stroke-opacity: 0; stroke: white; stroke-width: 15px;"/><rect x="-5" y="-5" rx="14" width="110" height="90" class="djs-outline" style="fill: none;"/></g></g><g class="djs-group"><g class="djs-element djs-shape" data-element-id="Gateway_0gp6bl5" style="display: block;" transform="matrix(1 0 0 1 1705 555)"><g class="djs-visual"><polygon points="25,0 50,25 25,50 0,25" style="stroke-linecap: round; stroke-linejoin: round; stroke: rgb(34, 36, 42); stroke-width: 2px; fill: white; fill-opacity: 0.95;"/><path d="m 16,15 7.42857142857143,9.714285714285715 -7.42857142857143,9.714285714285715 3.428571428571429,0 5.714285714285715,-7.464228571428572 5.714285714285715,7.464228571428572 3.428571428571429,0 -7.42857142857143,-9.714285714285715 7.42857142857143,-9.714285714285715 -3.428571428571429,0 -5.714285714285715,7.464228571428572 -5.714285714285715,-7.464228571428572 -3.428571428571429,0 z" style="fill: rgb(34, 36, 42); stroke-linecap: round; stroke-linejoin: round; stroke: rgb(34, 36, 42); stroke-width: 1px;"/></g><rect class="djs-hit djs-hit-all" x="0" y="0" width="50" height="50" style="fill: none; stroke-opacity: 0; stroke: white; stroke-width: 15px;"/><rect x="2" y="2" rx="4" width="46" height="46" class="djs-outline" style="transform-box: fill-box; transform: rotate(45deg); transform-origin: center center; fill: none;"/></g></g><g class="djs-group"><g class="djs-element djs-shape" data-element-id="Activity_0t8mdnf" style="display: block;" transform="matrix(1 0 0 1 1810 450)"><g class="djs-visual"><rect x="0" y="0" width="100" height="80" rx="10" ry="10" style="stroke-linecap: round; stroke-linejoin: round; stroke: rgb(34, 36, 42); stroke-width: 2px; fill: white; fill-opacity: 0.95;"/><text lineHeight="1.2" class="djs-label" style="font-family: Arial, sans-serif; font-size: 12px; font-weight: normal; fill: rgb(34, 36, 42);"><tspan x="30.25390625" y="22">Клиент </tspan><tspan x="10.765625" y="36.4">подтверждает </tspan><tspan x="15.96484375" y="50.8">завершение </tspan><tspan x="34.296875" y="65.19999999999999">урока</tspan></text></g><rect class="djs-hit djs-hit-all" x="0" y="0" width="100" height="80" style="fill: none; stroke-opacity: 0; stroke: white; stroke-width: 15px;"/><rect x="-5" y="-5" rx="14" width="110" height="90" class="djs-outline" style="fill: none;"/></g></g><g class="djs-group"><g class="djs-element djs-shape" data-element-id="Activity_0lsj4zr" style="display: block;" transform="matrix(1 0 0 1 1810 630)"><g class="djs-visual"><rect x="0" y="0" width="100" height="80" rx="10" ry="10" style="stroke-linecap: round; stroke-linejoin: round; stroke: rgb(34, 36, 42); stroke-width: 2px; fill: white; fill-opacity: 0.95;"/><text lineHeight="1.2" class="djs-label" style="font-family: Arial, sans-serif; font-size: 12px; font-weight: normal; fill: rgb(34, 36, 42);"><tspan x="30.25390625" y="22">Клиент </tspan><tspan x="23.15234375" y="36.4">выбирает </tspan><tspan x="16.76171875" y="50.8">продолжить </tspan><tspan x="37.7216796875" y="65.19999999999999">урок</tspan></text></g><rect class="djs-hit djs-hit-all" x="0" y="0" width="100" height="80" style="fill: none; stroke-opacity: 0; stroke: white; stroke-width: 15px;"/><rect x="-5" y="-5" rx="14" width="110" height="90" class="djs-outline" style="fill: none;"/></g></g><g class="djs-group"><g class="djs-element djs-shape" data-element-id="Gateway_0fn3m13" style="display: block;" transform="matrix(1 0 0 1 1305 475)"><g class="djs-visual"><polygon points="25,0 50,25 25,50 0,25" style="stroke-linecap: round; stroke-linejoin: round; stroke: rgb(34, 36, 42); stroke-width: 2px; fill: white; fill-opacity: 0.95;"/><path d="m 16,15 7.42857142857143,9.714285714285715 -7.42857142857143,9.714285714285715 3.428571428571429,0 5.714285714285715,-7.464228571428572 5.714285714285715,7.464228571428572 3.428571428571429,0 -7.42857142857143,-9.714285714285715 7.42857142857143,-9.714285714285715 -3.428571428571429,0 -5.714285714285715,7.464228571428572 -5.714285714285715,-7.464228571428572 -3.428571428571429,0 z" style="fill: rgb(34, 36, 42); stroke-linecap: round; stroke-linejoin: round; stroke: rgb(34, 36, 42); stroke-width: 1px;"/></g><rect class="djs-hit djs-hit-all" x="0" y="0" width="50" height="50" style="fill: none; stroke-opacity: 0; stroke: white; stroke-width: 15px;"/><rect x="2" y="2" rx="4" width="46" height="46" class="djs-outline" style="transform-box: fill-box; transform: rotate(45deg); transform-origin: center center; fill: none;"/></g></g><g class="djs-group"><g class="djs-element djs-shape" data-element-id="Event_1rcke2s" style="display: block;" transform="matrix(1 0 0 1 1992 422)"><g class="djs-visual"><circle cx="18" cy="18" r="18" style="stroke-linecap: round; stroke-linejoin: round; stroke: rgb(34, 36, 42); stroke-width: 4px; fill: white; fill-opacity: 0.95;"/></g><rect class="djs-hit djs-hit-all" x="0" y="0" width="36" height="36" style="fill: none; stroke-opacity: 0; stroke: white; stroke-width: 15px;"/><circle cx="18" cy="18" r="24" class="djs-outline" style="fill: none;"/></g></g><g class="djs-group"><g class="djs-element djs-connection" data-element-id="Association_10a86e9" style="display: block;"><g class="djs-visual"><path data-corner-radius="5" style="fill: none; stroke-linecap: round; stroke-linejoin: round; stroke: rgb(34, 36, 42); stroke-width: 2px; stroke-dasharray: 0, 5;" d="M880,460L880,405"/></g><rect x="875" y="400" rx="4" width="10" height="65" class="djs-outline" style="fill: none;"/><path d="M880,460L880,405" class="djs-hit djs-hit-stroke" style="fill: none; stroke-opacity: 0; stroke: white; stroke-width: 15px;"/></g></g><g class="djs-group"><g class="djs-element djs-connection" data-element-id="Association_03d5ro4" style="display: block;"><g class="djs-visual"><path data-corner-radius="5" style="fill: none; stroke-linecap: round; stroke-linejoin: round; stroke: rgb(34, 36, 42); stroke-width: 2px; stroke-dasharray: 0, 5;" d="M750,482L750,451"/></g><rect x="745" y="446" rx="4" width="10" height="41" class="djs-outline" style="fill: none;"/><path d="M750,482L750,451" class="djs-hit djs-hit-stroke" style="fill: none; stroke-opacity: 0; stroke: white; stroke-width: 15px;"/></g></g><g class="djs-group"><g class="djs-element djs-connection" data-element-id="Association_0x3d8ek" style="display: block;"><g class="djs-visual"><path data-corner-radius="5" style="fill: none; stroke-linecap: round; stroke-linejoin: round; stroke: rgb(34, 36, 42); stroke-width: 2px; stroke-dasharray: 0, 5;" d="M1330,475L1330,320"/></g><rect x="1325" y="315" rx="4" width="10" height="165" class="djs-outline" style="fill: none;"/><path d="M1330,475L1330,320" class="djs-hit djs-hit-stroke" style="fill: none; stroke-opacity: 0; stroke: white; stroke-width: 15px;"/></g></g><g class="djs-group"><g class="djs-element djs-shape" data-element-id="TextAnnotation_06l94oj" style="display: block;" transform="matrix(1 0 0 1 1810 80)"><g class="djs-visual"><rect x="0" y="0" width="100" height="243" rx="0" ry="0" style="stroke-linecap: round; stroke-linejoin: round; stroke: none; stroke-width: 2px; fill: none;"/><path d="m 0, 0 m 10,0 l -10,0 l 0,243 l 10,0" style="fill: none; stroke-linecap: round; stroke-linejoin: round; stroke: rgb(34, 36, 42); stroke-width: 2px;"/><text lineHeight="1.2" class="djs-label" style="font-family: Arial, sans-serif; font-size: 12px; font-weight: normal; fill: rgb(34, 36, 42);"><tspan x="7" y="17.799999999999997">После 10 </tspan><tspan x="7" y="32.199999999999996">ответов </tspan><tspan x="7" y="46.599999999999994">клиента </tspan><tspan x="7" y="60.99999999999999">система </tspan><tspan x="7" y="75.39999999999999">отображает </tspan><tspan x="7" y="89.79999999999998">всплывающее </tspan><tspan x="7" y="104.19999999999999">окно с </tspan><tspan x="7" y="118.6">поздравление</tspan><tspan x="7" y="133">м клиента с </tspan><tspan x="7" y="147.4">прохождением </tspan><tspan x="7" y="161.8">урока и </tspan><tspan x="7" y="176.20000000000002">сообщает о </tspan><tspan x="7" y="190.60000000000002">начислении </tspan><tspan x="7" y="205.00000000000003">ему 20 очков </tspan><tspan x="7" y="219.40000000000003">опыта (экран </tspan><tspan x="7" y="233.80000000000004">№ 5)</tspan></text></g><rect class="djs-hit djs-hit-all" x="0" y="0" width="100" height="243" style="fill: none; stroke-opacity: 0; stroke: white; stroke-width: 15px;"/><rect x="-5" y="-5" rx="4" width="110" height="253" class="djs-outline" style="fill: none;"/></g></g><g class="djs-group"><g class="djs-element djs-shape" data-element-id="TextAnnotation_0fcdk9v" style="display: block;" transform="matrix(1 0 0 1 1390 690)"><g class="djs-visual"><rect x="0" y="0" width="100" height="70" rx="0" ry="0" style="stroke-linecap: round; stroke-linejoin: round; stroke: none; stroke-width: 2px; fill: none;"/><path d="m 0, 0 m 10,0 l -10,0 l 0,70 l 10,0" style="fill: none; stroke-linecap: round; stroke-linejoin: round; stroke: rgb(34, 36, 42); stroke-width: 2px;"/><text lineHeight="1.2" class="djs-label" style="font-family: Arial, sans-serif; font-size: 12px; font-weight: normal; fill: rgb(34, 36, 42);"><tspan x="7" y="17.799999999999997">Клиент </tspan><tspan x="7" y="32.199999999999996">нажимает на </tspan><tspan x="7" y="46.599999999999994">крестик на </tspan><tspan x="7" y="60.99999999999999">экране № 4</tspan></text></g><rect class="djs-hit djs-hit-all" x="0" y="0" width="100" height="70" style="fill: none; stroke-opacity: 0; stroke: white; stroke-width: 15px;"/><rect x="-5" y="-5" rx="4" width="110" height="80" class="djs-outline" style="fill: none;"/></g></g><g class="djs-group"><g class="djs-element djs-shape" data-element-id="TextAnnotation_1xy37gd" style="display: block;" transform="matrix(1 0 0 1 1966 320)"><g class="djs-visual"><rect x="0" y="0" width="88" height="55" rx="0" ry="0" style="stroke-linecap: round; stroke-linejoin: round; stroke: none; stroke-width: 2px; fill: none;"/><path d="m 0, 0 m 10,0 l -10,0 l 0,55 l 10,0" style="fill: none; stroke-linecap: round; stroke-linejoin: round; stroke: rgb(34, 36, 42); stroke-width: 2px;"/><text lineHeight="1.2" class="djs-label" style="font-family: Arial, sans-serif; font-size: 12px; font-weight: normal; fill: rgb(34, 36, 42);"><tspan x="7" y="17.799999999999997">Происходит </tspan><tspan x="7" y="32.199999999999996">возврат на </tspan><tspan x="7" y="46.599999999999994">экран № 1</tspan></text></g><rect class="djs-hit djs-hit-all" x="0" y="0" width="88" height="55" style="fill: none; stroke-opacity: 0; stroke: white; stroke-width: 15px;"/><rect x="-5" y="-5" rx="4" width="98" height="65" class="djs-outline" style="fill: none;"/></g></g><g class="djs-group"><g class="djs-element djs-connection" data-element-id="Flow_0e72ekg" style="display: block;"><g class="djs-visual"><defs><marker id="marker-7jcixrxael8f9v1fufep13dsx" viewBox="0 0 20 20" refX="11" refY="10" markerWidth="10" markerHeight="10" orient="auto"><path d="M 1 5 L 11 10 L 1 15 Z" style="stroke-linecap: round; stroke-linejoin: round; stroke: rgb(34, 36, 42); stroke-width: 1px; fill: rgb(34, 36, 42);"/></marker></defs><path data-corner-radius="5" style="fill: none; stroke-linecap: round; stroke-linejoin: round; stroke: rgb(34, 36, 42); stroke-width: 2px; marker-end: url('#marker-7jcixrxael8f9v1fufep13dsx');" d="M930,500L990,500"/></g><rect x="925" y="495" rx="4" width="70" height="10" class="djs-outline" style="fill: none;"/><path d="M930,500L990,500" class="djs-hit djs-hit-stroke" style="fill: none; stroke-opacity: 0; stroke: white; stroke-width: 15px;"/></g></g><g class="djs-group"><g class="djs-element djs-connection" data-element-id="Flow_0c3ahqm" style="display: block;"><g class="djs-visual"><defs><marker id="marker-83o8sicnfmamqg984otlvnl62" viewBox="0 0 20 20" refX="11" refY="10" markerWidth="10" markerHeight="10" orient="auto"><path d="M 1 5 L 11 10 L 1 15 Z" style="stroke-linecap: round; stroke-linejoin: round; stroke: rgb(34, 36, 42); stroke-width: 1px; fill: rgb(34, 36, 42);"/></marker></defs><path data-corner-radius="5" style="fill: none; stroke-linecap: round; stroke-linejoin: round; stroke: rgb(34, 36, 42); stroke-width: 2px; marker-end: url('#marker-83o8sicnfmamqg984otlvnl62');" d="M1090,500L1150,500"/></g><rect x="1085" y="495" rx="4" width="70" height="10" class="djs-outline" style="fill: none;"/><path d="M1090,500L1150,500" class="djs-hit djs-hit-stroke" style="fill: none; stroke-opacity: 0; stroke: white; stroke-width: 15px;"/></g></g><g class="djs-group"><g class="djs-element djs-connection" data-element-id="Flow_076mbl8" style="display: block;"><g class="djs-visual"><defs><marker id="marker-abbiqwfhby2k6fctrhtsiznv8" viewBox="0 0 20 20" refX="11" refY="10" markerWidth="10" markerHeight="10" orient="auto"><path d="M 1 5 L 11 10 L 1 15 Z" style="stroke-linecap: round; stroke-linejoin: round; stroke: rgb(34, 36, 42); stroke-width: 1px; fill: rgb(34, 36, 42);"/></marker></defs><path data-corner-radius="5" style="fill: none; stroke-linecap: round; stroke-linejoin: round; stroke: rgb(34, 36, 42); stroke-width: 2px; marker-end: url('#marker-abbiqwfhby2k6fctrhtsiznv8');" d="M1490,580L1550,580"/></g><rect x="1485" y="575" rx="4" width="70" height="10" class="djs-outline" style="fill: none;"/><path d="M1490,580L1550,580" class="djs-hit djs-hit-stroke" style="fill: none; stroke-opacity: 0; stroke: white; stroke-width: 15px;"/></g></g><g class="djs-group"><g class="djs-element djs-connection" data-element-id="Flow_1ght8rz" style="display: block;"><g class="djs-visual"><defs><marker id="marker-4rmlv3hcs3lc52ymho1yqd59l" viewBox="0 0 20 20" refX="11" refY="10" markerWidth="10" markerHeight="10" orient="auto"><path d="M 1 5 L 11 10 L 1 15 Z" style="stroke-linecap: round; stroke-linejoin: round; stroke: rgb(34, 36, 42); stroke-width: 1px; fill: rgb(34, 36, 42);"/></marker></defs><path data-corner-radius="5" style="fill: none; stroke-linecap: round; stroke-linejoin: round; stroke: rgb(34, 36, 42); stroke-width: 2px; marker-end: url('#marker-4rmlv3hcs3lc52ymho1yqd59l');" d="M1650,580L1705,580"/></g><rect x="1645" y="575" rx="4" width="65" height="10" class="djs-outline" style="fill: none;"/><path d="M1650,580L1705,580" class="djs-hit djs-hit-stroke" style="fill: none; stroke-opacity: 0; stroke: white; stroke-width: 15px;"/></g></g><g class="djs-group"><g class="djs-element djs-connection" data-element-id="Flow_0vcmkae" style="display: block;"><g class="djs-visual"><defs><marker id="marker-59iea2nobguqcdwyf1oe07ujl" viewBox="0 0 20 20" refX="11" refY="10" markerWidth="10" markerHeight="10" orient="auto"><path d="M 1 5 L 11 10 L 1 15 Z" style="stroke-linecap: round; stroke-linejoin: round; stroke: rgb(34, 36, 42); stroke-width: 1px; fill: rgb(34, 36, 42);"/></marker></defs><path data-corner-radius="5" style="fill: none; stroke-linecap: round; stroke-linejoin: round; stroke: rgb(34, 36, 42); stroke-width: 2px; marker-end: url('#marker-59iea2nobguqcdwyf1oe07ujl');" d="M1730,555L1730,495C1730,492.5,1732.5,490,1735,490L1810,490"/></g><rect x="1725" y="485" rx="4" width="90" height="75" class="djs-outline" style="fill: none;"/><path d="M1730,555L1730,490L1810,490" class="djs-hit djs-hit-stroke" style="fill: none; stroke-opacity: 0; stroke: white; stroke-width: 15px;"/></g></g><g class="djs-group"><g class="djs-element djs-connection" data-element-id="Flow_18akq2a" style="display: block;"><g class="djs-visual"><defs><marker id="marker-7pdcg4e2s2ryuyyr7cza7d0xl" viewBox="0 0 20 20" refX="11" refY="10" markerWidth="10" markerHeight="10" orient="auto"><path d="M 1 5 L 11 10 L 1 15 Z" style="stroke-linecap: round; stroke-linejoin: round; stroke: rgb(34, 36, 42); stroke-width: 1px; fill: rgb(34, 36, 42);"/></marker></defs><path data-corner-radius="5" style="fill: none; stroke-linecap: round; stroke-linejoin: round; stroke: rgb(34, 36, 42); stroke-width: 2px; marker-end: url('#marker-7pdcg4e2s2ryuyyr7cza7d0xl');" d="M1730,605L1730,665C1730,667.5,1732.5,670,1735,670L1810,670"/></g><rect x="1725" y="600" rx="4" width="90" height="75" class="djs-outline" style="fill: none;"/><path d="M1730,605L1730,670L1810,670" class="djs-hit djs-hit-stroke" style="fill: none; stroke-opacity: 0; stroke: white; stroke-width: 15px;"/></g></g><g class="djs-group"><g class="djs-element djs-connection" data-element-id="Flow_02d5y56" style="display: block;"><g class="djs-visual"><defs><marker id="marker-c6cydfrye538gt0d9dc7q2yuo" viewBox="0 0 20 20" refX="11" refY="10" markerWidth="10" markerHeight="10" orient="auto"><path d="M 1 5 L 11 10 L 1 15 Z" style="stroke-linecap: round; stroke-linejoin: round; stroke: rgb(34, 36, 42); stroke-width: 1px; fill: rgb(34, 36, 42);"/></marker></defs><path data-corner-radius="5" style="fill: none; stroke-linecap: round; stroke-linejoin: round; stroke: rgb(34, 36, 42); stroke-width: 2px; marker-end: url('#marker-c6cydfrye538gt0d9dc7q2yuo');" d="M1860,710L1860,815C1860,817.5,1857.5,820,1855,820L1205,820C1202.5,820,1200,817.5,1200,815L1200,540"/></g><rect x="1195" y="535" rx="4" width="670" height="290" class="djs-outline" style="fill: none;"/><path d="M1860,710L1860,820L1200,820L1200,540" class="djs-hit djs-hit-stroke" style="fill: none; stroke-opacity: 0; stroke: white; stroke-width: 15px;"/></g></g><g class="djs-group"><g class="djs-element djs-connection" data-element-id="Flow_1urh4lh" style="display: block;"><g class="djs-visual"><defs><marker id="marker-57tybcb6x665ibtidx0kztgp5" viewBox="0 0 20 20" refX="11" refY="10" markerWidth="10" markerHeight="10" orient="auto"><path d="M 1 5 L 11 10 L 1 15 Z" style="stroke-linecap: round; stroke-linejoin: round; stroke: rgb(34, 36, 42); stroke-width: 1px; fill: rgb(34, 36, 42);"/></marker></defs><path data-corner-radius="5" style="fill: none; stroke-linecap: round; stroke-linejoin: round; stroke: rgb(34, 36, 42); stroke-width: 2px; marker-end: url('#marker-57tybcb6x665ibtidx0kztgp5');" d="M1250,500L1305,500"/></g><rect x="1245" y="495" rx="4" width="65" height="10" class="djs-outline" style="fill: none;"/><path d="M1250,500L1305,500" class="djs-hit djs-hit-stroke" style="fill: none; stroke-opacity: 0; stroke: white; stroke-width: 15px;"/></g></g><g class="djs-group"><g class="djs-element djs-connection" data-element-id="Flow_0wz4cpm" style="display: block;"><g class="djs-visual"><defs><marker id="marker-e8ad73fjm307iz5qpfnhqdce5" viewBox="0 0 20 20" refX="11" refY="10" markerWidth="10" markerHeight="10" orient="auto"><path d="M 1 5 L 11 10 L 1 15 Z" style="stroke-linecap: round; stroke-linejoin: round; stroke: rgb(34, 36, 42); stroke-width: 1px; fill: rgb(34, 36, 42);"/></marker></defs><path data-corner-radius="5" style="fill: none; stroke-linecap: round; stroke-linejoin: round; stroke: rgb(34, 36, 42); stroke-width: 2px; marker-end: url('#marker-e8ad73fjm307iz5qpfnhqdce5');" d="M1330,525L1330,575C1330,577.5,1332.5,580,1335,580L1390,580"/></g><rect x="1325" y="520" rx="4" width="70" height="65" class="djs-outline" style="fill: none;"/><path d="M1330,525L1330,580L1390,580" class="djs-hit djs-hit-stroke" style="fill: none; stroke-opacity: 0; stroke: white; stroke-width: 15px;"/></g></g><g class="djs-group"><g class="djs-element djs-connection" data-element-id="Flow_1om8crm" style="display: block;"><g class="djs-visual"><defs><marker id="marker-387mnoaldslgjhzxz2ap66oqn" viewBox="0 0 20 20" refX="11" refY="10" markerWidth="10" markerHeight="10" orient="auto"><path d="M 1 5 L 11 10 L 1 15 Z" style="stroke-linecap: round; stroke-linejoin: round; stroke: rgb(34, 36, 42); stroke-width: 1px; fill: rgb(34, 36, 42);"/></marker></defs><path data-corner-radius="5" style="fill: none; stroke-linecap: round; stroke-linejoin: round; stroke: rgb(34, 36, 42); stroke-width: 2px; marker-end: url('#marker-387mnoaldslgjhzxz2ap66oqn');" d="M1330,475L1330,405C1330,402.5,1332.5,400,1335,400L1810,400"/></g><rect x="1325" y="395" rx="4" width="490" height="85" class="djs-outline" style="fill: none;"/><path d="M1330,475L1330,400L1810,400" class="djs-hit djs-hit-stroke" style="fill: none; stroke-opacity: 0; stroke: white; stroke-width: 15px;"/></g></g><g class="djs-group"><g class="djs-element djs-connection" data-element-id="Flow_0966939" style="display: block;"><g class="djs-visual"><defs><marker id="marker-5bwbq00e769j4vywy3bdd1hti" viewBox="0 0 20 20" refX="11" refY="10" markerWidth="10" markerHeight="10" orient="auto"><path d="M 1 5 L 11 10 L 1 15 Z" style="stroke-linecap: round; stroke-linejoin: round; stroke: rgb(34, 36, 42); stroke-width: 1px; fill: rgb(34, 36, 42);"/></marker></defs><path data-corner-radius="5" style="fill: none; stroke-linecap: round; stroke-linejoin: round; stroke: rgb(34, 36, 42); stroke-width: 2px; marker-end: url('#marker-5bwbq00e769j4vywy3bdd1hti');" d="M1910,400L1946,400C1948.5,400,1951,402.5,1951,405L1951,435C1951,437.5,1953.5,440,1956,440L1992,440"/></g><rect x="1905" y="395" rx="4" width="92" height="50" class="djs-outline" style="fill: none;"/><path d="M1910,400L1951,400L1951,440L1992,440" class="djs-hit djs-hit-stroke" style="fill: none; stroke-opacity: 0; stroke: white; stroke-width: 15px;"/></g></g><g class="djs-group"><g class="djs-element djs-connection" data-element-id="Flow_022nhjc" style="display: block;"><g class="djs-visual"><defs><marker id="marker-2fh8dmfs4h2hibymg8glowif0" viewBox="0 0 20 20" refX="11" refY="10" markerWidth="10" markerHeight="10" orient="auto"><path d="M 1 5 L 11 10 L 1 15 Z" style="stroke-linecap: round; stroke-linejoin: round; stroke: rgb(34, 36, 42); stroke-width: 1px; fill: rgb(34, 36, 42);"/></marker></defs><path data-corner-radius="5" style="fill: none; stroke-linecap: round; stroke-linejoin: round; stroke: rgb(34, 36, 42); stroke-width: 2px; marker-end: url('#marker-2fh8dmfs4h2hibymg8glowif0');" d="M1910,490L1946,490C1948.5,490,1951,487.5,1951,485L1951,445C1951,442.5,1953.5,440,1956,440L1992,440"/></g><rect x="1905" y="435" rx="4" width="92" height="60" class="djs-outline" style="fill: none;"/><path d="M1910,490L1951,490L1951,440L1992,440" class="djs-hit djs-hit-stroke" style="fill: none; stroke-opacity: 0; stroke: white; stroke-width: 15px;"/></g></g><g class="djs-group"><g class="djs-element djs-connection" data-element-id="Association_0efjkzg" style="display: block;"><g class="djs-visual"><path data-corner-radius="5" style="fill: none; stroke-linecap: round; stroke-linejoin: round; stroke: rgb(34, 36, 42); stroke-width: 2px; stroke-dasharray: 0, 5;" d="M1860,360L1860,323"/></g><rect x="1855" y="318" rx="4" width="10" height="47" class="djs-outline" style="fill: none;"/><path d="M1860,360L1860,323" class="djs-hit djs-hit-stroke" style="fill: none; stroke-opacity: 0; stroke: white; stroke-width: 15px;"/></g></g><g class="djs-group"><g class="djs-element djs-connection" data-element-id="Association_16a1whu" style="display: block;"><g class="djs-visual"><path data-corner-radius="5" style="fill: none; stroke-linecap: round; stroke-linejoin: round; stroke: rgb(34, 36, 42); stroke-width: 2px; stroke-dasharray: 0, 5;" d="M1440,620L1440,690"/></g><rect x="1435" y="615" rx="4" width="10" height="80" class="djs-outline" style="fill: none;"/><path d="M1440,620L1440,690" class="djs-hit djs-hit-stroke" style="fill: none; stroke-opacity: 0; stroke: white; stroke-width: 15px;"/></g></g><g class="djs-group"><g class="djs-element djs-connection" data-element-id="Association_1brf8ph" style="display: block;"><g class="djs-visual"><path data-corner-radius="5" style="fill: none; stroke-linecap: round; stroke-linejoin: round; stroke: rgb(34, 36, 42); stroke-width: 2px; stroke-dasharray: 0, 5;" d="M2009,422L2006,375"/></g><rect x="2001" y="370" rx="4" width="13" height="57" class="djs-outline" style="fill: none;"/><path d="M2009,422L2006,375" class="djs-hit djs-hit-stroke" style="fill: none; stroke-opacity: 0; stroke: white; stroke-width: 15px;"/></g></g><g class="djs-group"><g class="djs-element djs-shape" data-element-id="TextAnnotation_0ilcj55" style="display: block;" transform="matrix(1 0 0 1 830 220)"><g class="djs-visual"><rect x="0" y="0" width="100" height="185" rx="0" ry="0" style="stroke-linecap: round; stroke-linejoin: round; stroke: none; stroke-width: 2px; fill: none;"/><path d="m 0, 0 m 10,0 l -10,0 l 0,185 l 10,0" style="fill: none; stroke-linecap: round; stroke-linejoin: round; stroke: rgb(34, 36, 42); stroke-width: 2px;"/><text lineHeight="1.2" class="djs-label" style="font-family: Arial, sans-serif; font-size: 12px; font-weight: normal; fill: rgb(34, 36, 42);"><tspan x="7" y="17.799999999999997">Клиент </tspan><tspan x="7" y="32.199999999999996">начинает урок </tspan><tspan x="7" y="46.599999999999994">через выбор </tspan><tspan x="7" y="60.99999999999999">конкретной </tspan><tspan x="7" y="75.39999999999999">темы </tspan><tspan x="7" y="89.79999999999998">нажатием на </tspan><tspan x="7" y="104.19999999999999">кнопку "Тема" </tspan><tspan x="7" y="118.6">или случайной </tspan><tspan x="7" y="133">темы </tspan><tspan x="7" y="147.4">нажатием на </tspan><tspan x="7" y="161.8">кнопку "Старт"</tspan><tspan x="7" y="176.20000000000002">(экран № 3)</tspan></text></g><rect class="djs-hit djs-hit-all" x="0" y="0" width="100" height="185" style="fill: none; stroke-opacity: 0; stroke: white; stroke-width: 15px;"/><rect x="-5" y="-5" rx="4" width="110" height="195" class="djs-outline" style="fill: none;"/></g></g><g class="djs-group"><g class="djs-element djs-connection" data-element-id="Flow_048zllw" style="display: block;"><g class="djs-visual"><defs><marker id="marker-bukkk8406kmrp7hasebk5lc7a" viewBox="0 0 20 20" refX="11" refY="10" markerWidth="10" markerHeight="10" orient="auto"><path d="M 1 5 L 11 10 L 1 15 Z" style="stroke-linecap: round; stroke-linejoin: round; stroke: rgb(34, 36, 42); stroke-width: 1px; fill: rgb(34, 36, 42);"/></marker></defs><path data-corner-radius="5" style="fill: none; stroke-linecap: round; stroke-linejoin: round; stroke: rgb(34, 36, 42); stroke-width: 2px; marker-end: url('#marker-bukkk8406kmrp7hasebk5lc7a');" d="M768,500L830,500"/></g><rect x="763" y="495" rx="4" width="72" height="10" class="djs-outline" style="fill: none;"/><path d="M768,500L830,500" class="djs-hit djs-hit-stroke" style="fill: none; stroke-opacity: 0; stroke: white; stroke-width: 15px;"/></g></g><g class="djs-group"><g class="djs-element djs-shape" data-element-id="TextAnnotation_0mhzgew" style="display: block;" transform="matrix(1 0 0 1 685 370)"><g class="djs-visual"><rect x="0" y="0" width="130" height="81" rx="0" ry="0" style="stroke-linecap: round; stroke-linejoin: round; stroke: none; stroke-width: 2px; fill: none;"/><path d="m 0, 0 m 10,0 l -10,0 l 0,81 l 10,0" style="fill: none; stroke-linecap: round; stroke-linejoin: round; stroke: rgb(34, 36, 42); stroke-width: 2px;"/><text lineHeight="1.2" class="djs-label" style="font-family: Arial, sans-serif; font-size: 12px; font-weight: normal; fill: rgb(34, 36, 42);"><tspan x="7" y="17.799999999999997">В окне "Диалоги" </tspan><tspan x="7" y="32.199999999999996">клиент нажимает </tspan><tspan x="7" y="46.599999999999994">кнопку "Говорить" </tspan><tspan x="7" y="60.99999999999999">(экран № 2)</tspan></text></g><rect class="djs-hit djs-hit-all" x="0" y="0" width="130" height="81" style="fill: none; stroke-opacity: 0; stroke: white; stroke-width: 15px;"/><rect x="-5" y="-5" rx="4" width="140" height="91" class="djs-outline" style="fill: none;"/></g></g><g class="djs-group"><g class="djs-element djs-shape" data-element-id="TextAnnotation_0my6sww" style="display: block;" transform="matrix(1 0 0 1 1230 250)"><g class="djs-visual"><rect x="0" y="0" width="230" height="70" rx="0" ry="0" style="stroke-linecap: round; stroke-linejoin: round; stroke: none; stroke-width: 2px; fill: none;"/><path d="m 0, 0 m 10,0 l -10,0 l 0,70 l 10,0" style="fill: none; stroke-linecap: round; stroke-linejoin: round; stroke: rgb(34, 36, 42); stroke-width: 2px;"/><text lineHeight="1.2" class="djs-label" style="font-family: Arial, sans-serif; font-size: 12px; font-weight: normal; fill: rgb(34, 36, 42);"><tspan x="7" y="17.799999999999997">Клиент либо успешно проходит урок,</tspan><tspan x="7" y="32.199999999999996">обменявшись с системой десятью </tspan><tspan x="7" y="46.599999999999994">сообщениями, либо принудительно </tspan><tspan x="7" y="60.99999999999999">завершает урок</tspan></text></g><rect class="djs-hit djs-hit-all" x="0" y="0" width="230" height="70" style="fill: none; stroke-opacity: 0; stroke: white; stroke-width: 15px;"/><rect x="-5" y="-5" rx="4" width="240" height="80" class="djs-outline" style="fill: none;"/></g></g></svg>