<?xml version="1.0" encoding="utf-8"?>
<!-- created with bpmn-js / http://bpmn.io -->
<!DOCTYPE svg PUBLIC "-//W3C//DTD SVG 1.1//EN" "http://www.w3.org/Graphics/SVG/1.1/DTD/svg11.dtd">
<svg xmlns="http://www.w3.org/2000/svg" xmlns:xlink="http://www.w3.org/1999/xlink" width="1990" height="750" viewBox="135 75 1990 750" version="1.1"><defs><pattern id="djs-grid-pattern-748633" width="10" height="10" patternUnits="userSpaceOnUse"><circle cx="0.5" cy="0.5" r="0.5" style="fill: rgb(204, 204, 204);"/></pattern></defs><g class="djs-group"><g class="djs-element djs-shape" data-element-id="Event_1e6q426" style="display: block;" transform="matrix(1 0 0 1 202 482)"><g class="djs-visual"><circle cx="18" cy="18" r="18" style="stroke-linecap: round; stroke-linejoin: round; stroke: rgb(34, 36, 42); stroke-width: 2px; fill: white; fill-opacity: 0.95;"/></g><rect class="djs-hit djs-hit-all" x="0" y="0" width="36" height="36" style="fill: none; stroke-opacity: 0; stroke: white; stroke-width: 15px;"/><circle cx="18" cy="18" r="23" class="djs-outline" style="fill: none;"/></g></g><g class="djs-group"><g class="djs-element djs-shape" data-element-id="Activity_00iea9m" style="display: block;" transform="matrix(1 0 0 1 310 460)"><g class="djs-visual"><rect x="0" y="0" width="100" height="80" rx="10" ry="10" style="stroke-linecap: round; stroke-linejoin: round; stroke: rgb(34, 36, 42); stroke-width: 2px; fill: white; fill-opacity: 0.95;"/><text lineHeight="1.2" class="djs-label" style="font-family: Arial, sans-serif; font-size: 12px; font-weight: normal; fill: rgb(34, 36, 42);"><tspan x="30.25390625" y="14.799999999999999">Клиент </tspan><tspan x="16.27734375" y="29.199999999999996">переходит в </tspan><tspan x="17.2109375" y="43.599999999999994">раздел доп. </tspan><tspan x="7.8203125" y="57.99999999999999">задания (экран</tspan><tspan x="36.55859375" y="72.39999999999999">№ 1)</tspan></text></g><rect class="djs-hit djs-hit-all" x="0" y="0" width="100" height="80" style="fill: none; stroke-opacity: 0; stroke: white; stroke-width: 15px;"/><rect x="-5" y="-5" rx="14" width="110" height="90" class="djs-outline" style="fill: none;"/></g></g><g class="djs-group"><g class="djs-element djs-shape" data-element-id="Activity_07rs1v0" style="display: block;" transform="matrix(1 0 0 1 460 460)"><g class="djs-visual"><rect x="0" y="0" width="100" height="80" rx="10" ry="10" style="stroke-linecap: round; stroke-linejoin: round; stroke: rgb(34, 36, 42); stroke-width: 2px; fill: white; fill-opacity: 0.95;"/><text lineHeight="1.2" class="djs-label" style="font-family: Arial, sans-serif; font-size: 12px; font-weight: normal; fill: rgb(34, 36, 42);"><tspan x="50" y="43.599999999999994"/></text></g><rect class="djs-hit djs-hit-all" x="0" y="0" width="100" height="80" style="fill: none; stroke-opacity: 0; stroke: white; stroke-width: 15px;"/><rect x="-5" y="-5" rx="14" width="110" height="90" class="djs-outline" style="fill: none;"/></g></g><g class="djs-group"><g class="djs-element djs-shape" data-element-id="Gateway_1w41ys5" style="display: block;" transform="matrix(1 0 0 1 605 475)"><g class="djs-visual"><polygon points="25,0 50,25 25,50 0,25" style="stroke-linecap: round; stroke-linejoin: round; stroke: rgb(34, 36, 42); stroke-width: 2px; fill: white; fill-opacity: 0.95;"/><path d="m 16,15 7.42857142857143,9.714285714285715 -7.42857142857143,9.714285714285715 3.428571428571429,0 5.714285714285715,-7.464228571428572 5.714285714285715,7.464228571428572 3.428571428571429,0 -7.42857142857143,-9.714285714285715 7.42857142857143,-9.714285714285715 -3.428571428571429,0 -5.714285714285715,7.464228571428572 -5.714285714285715,-7.464228571428572 -3.428571428571429,0 z" style="fill: rgb(34, 36, 42); stroke-linecap: round; stroke-linejoin: round; stroke: rgb(34, 36, 42); stroke-width: 1px;"/></g><rect class="djs-hit djs-hit-all" x="0" y="0" width="50" height="50" style="fill: none; stroke-opacity: 0; stroke: white; stroke-width: 15px;"/><rect x="2" y="2" rx="4" width="46" height="46" class="djs-outline" style="transform-box: fill-box; transform: rotate(45deg); transform-origin: center center; fill: none;"/></g></g><g class="djs-group"><g class="djs-element djs-shape" data-element-id="Activity_0ltlf0s" style="display: block;" transform="matrix(1 0 0 1 760 380)"><g class="djs-visual"><rect x="0" y="0" width="100" height="80" rx="10" ry="10" style="stroke-linecap: round; stroke-linejoin: round; stroke: rgb(34, 36, 42); stroke-width: 2px; fill: white; fill-opacity: 0.95;"/><text lineHeight="1.2" class="djs-label" style="font-family: Arial, sans-serif; font-size: 12px; font-weight: normal; fill: rgb(34, 36, 42);"><tspan x="17.35546875" y="7.599999999999996">Нажатие на </tspan><tspan x="9.55078125" y="21.999999999999993">кнопку "Старт"</tspan><tspan x="18.26171875" y="36.39999999999999">для начала </tspan><tspan x="26.2265625" y="50.79999999999999">урока со </tspan><tspan x="20.6796875" y="65.19999999999999">случайной </tspan><tspan x="33.16796875" y="79.6">темой</tspan></text></g><rect class="djs-hit djs-hit-all" x="0" y="0" width="100" height="80" style="fill: none; stroke-opacity: 0; stroke: white; stroke-width: 15px;"/><rect x="-5" y="-5" rx="14" width="110" height="90" class="djs-outline" style="fill: none;"/></g></g><g class="djs-group"><g class="djs-element djs-shape" data-element-id="Activity_10biust" style="display: block;" transform="matrix(1 0 0 1 760 540)"><g class="djs-visual"><rect x="0" y="0" width="100" height="80" rx="10" ry="10" style="stroke-linecap: round; stroke-linejoin: round; stroke: rgb(34, 36, 42); stroke-width: 2px; fill: white; fill-opacity: 0.95;"/><text lineHeight="1.2" class="djs-label" style="font-family: Arial, sans-serif; font-size: 12px; font-weight: normal; fill: rgb(34, 36, 42);"><tspan x="11.7265625" y="7.599999999999996">Начало урока </tspan><tspan x="14.96484375" y="21.999999999999993">через выбор </tspan><tspan x="10.078125" y="36.39999999999999">определенной </tspan><tspan x="35.54296875" y="50.79999999999999">темы </tspan><tspan x="14.25" y="65.19999999999999">нажатием на </tspan><tspan x="31.61328125" y="79.6">"Тема"</tspan></text></g><rect class="djs-hit djs-hit-all" x="0" y="0" width="100" height="80" style="fill: none; stroke-opacity: 0; stroke: white; stroke-width: 15px;"/><rect x="-5" y="-5" rx="14" width="110" height="90" class="djs-outline" style="fill: none;"/></g></g><g class="djs-group"><g class="djs-element djs-shape" data-element-id="Activity_0e55j6j" style="display: block;" transform="matrix(1 0 0 1 990 460)"><g class="djs-visual"><rect x="0" y="0" width="100" height="80" rx="10" ry="10" style="stroke-linecap: round; stroke-linejoin: round; stroke: rgb(34, 36, 42); stroke-width: 2px; fill: white; fill-opacity: 0.95;"/><text lineHeight="1.2" class="djs-label" style="font-family: Arial, sans-serif; font-size: 12px; font-weight: normal; fill: rgb(34, 36, 42);"><tspan x="25.8359375" y="14.799999999999999">Система </tspan><tspan x="17.4296875" y="29.199999999999996">отображает </tspan><tspan x="19.35546875" y="43.599999999999994">интерфейс </tspan><tspan x="14.9609375" y="57.99999999999999">урока (экран </tspan><tspan x="36.55859375" y="72.39999999999999">№ 4)</tspan></text></g><rect class="djs-hit djs-hit-all" x="0" y="0" width="100" height="80" style="fill: none; stroke-opacity: 0; stroke: white; stroke-width: 15px;"/><rect x="-5" y="-5" rx="14" width="110" height="90" class="djs-outline" style="fill: none;"/></g></g><g class="djs-group"><g class="djs-element djs-shape" data-element-id="Gateway_04mtzve" style="display: block;" transform="matrix(1 0 0 1 1295 475)"><g class="djs-visual"><polygon points="25,0 50,25 25,50 0,25" style="stroke-linecap: round; stroke-linejoin: round; stroke: rgb(34, 36, 42); stroke-width: 2px; fill: white; fill-opacity: 0.95;"/><path d="m 23,10 0,12.5 -12.5,0 0,5 12.5,0 0,12.5 5,0 0,-12.5 12.5,0 0,-5 -12.5,0 0,-12.5 -5,0 z" style="fill: rgb(34, 36, 42); stroke-linecap: round; stroke-linejoin: round; stroke: rgb(34, 36, 42); stroke-width: 1px;"/></g><rect class="djs-hit djs-hit-all" x="0" y="0" width="50" height="50" style="fill: none; stroke-opacity: 0; stroke: white; stroke-width: 15px;"/><rect x="2" y="2" rx="4" width="46" height="46" class="djs-outline" style="transform-box: fill-box; transform: rotate(45deg); transform-origin: center center; fill: none;"/></g></g><g class="djs-group"><g class="djs-element djs-shape" data-element-id="Activity_0acpmn4" style="display: block;" transform="matrix(1 0 0 1 1390 540)"><g class="djs-visual"><rect x="0" y="0" width="100" height="80" rx="10" ry="10" style="stroke-linecap: round; stroke-linejoin: round; stroke: rgb(34, 36, 42); stroke-width: 2px; fill: white; fill-opacity: 0.95;"/><text lineHeight="1.2" class="djs-label" style="font-family: Arial, sans-serif; font-size: 12px; font-weight: normal; fill: rgb(34, 36, 42);"><tspan x="10.2734375" y="22">Принудительн</tspan><tspan x="7.625" y="36.4">ое завершение</tspan><tspan x="34.296875" y="50.8">урока </tspan><tspan x="23.66015625" y="65.19999999999999">клиентом</tspan></text></g><rect class="djs-hit djs-hit-all" x="0" y="0" width="100" height="80" style="fill: none; stroke-opacity: 0; stroke: white; stroke-width: 15px;"/><rect x="-5" y="-5" rx="14" width="110" height="90" class="djs-outline" style="fill: none;"/></g></g><g class="djs-group"><g class="djs-element djs-shape" data-element-id="Gateway_0gp6bl5" style="display: block;" transform="matrix(1 0 0 1 1705 555)"><g class="djs-visual"><polygon points="25,0 50,25 25,50 0,25" style="stroke-linecap: round; stroke-linejoin: round; stroke: rgb(34, 36, 42); stroke-width: 2px; fill: white; fill-opacity: 0.95;"/><path d="m 16,15 7.42857142857143,9.714285714285715 -7.42857142857143,9.714285714285715 3.428571428571429,0 5.714285714285715,-7.464228571428572 5.714285714285715,7.464228571428572 3.428571428571429,0 -7.42857142857143,-9.714285714285715 7.42857142857143,-9.714285714285715 -3.428571428571429,0 -5.714285714285715,7.464228571428572 -5.714285714285715,-7.464228571428572 -3.428571428571429,0 z" style="fill: rgb(34, 36, 42); stroke-linecap: round; stroke-linejoin: round; stroke: rgb(34, 36, 42); stroke-width: 1px;"/></g><rect class="djs-hit djs-hit-all" x="0" y="0" width="50" height="50" style="fill: none; stroke-opacity: 0; stroke: white; stroke-width: 15px;"/><rect x="2" y="2" rx="4" width="46" height="46" class="djs-outline" style="transform-box: fill-box; transform: rotate(45deg); transform-origin: center center; fill: none;"/></g></g><g class="djs-group"><g class="djs-element djs-shape" data-element-id="Activity_1x4lemx" style="display: block;" transform="matrix(1 0 0 1 1550 540)"><g class="djs-visual"><rect x="0" y="0" width="100" height="80" rx="10" ry="10" style="stroke-linecap: round; stroke-linejoin: round; stroke: rgb(34, 36, 42); stroke-width: 2px; fill: white; fill-opacity: 0.95;"/><text lineHeight="1.2" class="djs-label" style="font-family: Arial, sans-serif; font-size: 12px; font-weight: normal; fill: rgb(34, 36, 42);"><tspan x="25.8359375" y="7.599999999999996">Система </tspan><tspan x="17.4296875" y="21.999999999999993">отображает </tspan><tspan x="25.46875" y="36.39999999999999">окно для </tspan><tspan x="32.44140625" y="50.79999999999999">подтв. </tspan><tspan x="16.05078125" y="65.19999999999999">завершения </tspan><tspan x="34.296875" y="79.6">урока</tspan></text></g><rect class="djs-hit djs-hit-all" x="0" y="0" width="100" height="80" style="fill: none; stroke-opacity: 0; stroke: white; stroke-width: 15px;"/><rect x="-5" y="-5" rx="14" width="110" height="90" class="djs-outline" style="fill: none;"/></g></g><g class="djs-group"><g class="djs-element djs-shape" data-element-id="Activity_0t8mdnf" style="display: block;" transform="matrix(1 0 0 1 1810 450)"><g class="djs-visual"><rect x="0" y="0" width="100" height="80" rx="10" ry="10" style="stroke-linecap: round; stroke-linejoin: round; stroke: rgb(34, 36, 42); stroke-width: 2px; fill: white; fill-opacity: 0.95;"/><text lineHeight="1.2" class="djs-label" style="font-family: Arial, sans-serif; font-size: 12px; font-weight: normal; fill: rgb(34, 36, 42);"><tspan x="30.25390625" y="22">Клиент </tspan><tspan x="10.765625" y="36.4">подтверждает </tspan><tspan x="15.96484375" y="50.8">завершение </tspan><tspan x="34.296875" y="65.19999999999999">урока</tspan></text></g><rect class="djs-hit djs-hit-all" x="0" y="0" width="100" height="80" style="fill: none; stroke-opacity: 0; stroke: white; stroke-width: 15px;"/><rect x="-5" y="-5" rx="14" width="110" height="90" class="djs-outline" style="fill: none;"/></g></g><g class="djs-group"><g class="djs-element djs-shape" data-element-id="Activity_0lsj4zr" style="display: block;" transform="matrix(1 0 0 1 1810 630)"><g class="djs-visual"><rect x="0" y="0" width="100" height="80" rx="10" ry="10" style="stroke-linecap: round; stroke-linejoin: round; stroke: rgb(34, 36, 42); stroke-width: 2px; fill: white; fill-opacity: 0.95;"/><text lineHeight="1.2" class="djs-label" style="font-family: Arial, sans-serif; font-size: 12px; font-weight: normal; fill: rgb(34, 36, 42);"><tspan x="30.25390625" y="22">Клиент </tspan><tspan x="23.15234375" y="36.4">выбирает </tspan><tspan x="16.76171875" y="50.8">продолжить </tspan><tspan x="37.7216796875" y="65.19999999999999">урок</tspan></text></g><rect class="djs-hit djs-hit-all" x="0" y="0" width="100" height="80" style="fill: none; stroke-opacity: 0; stroke: white; stroke-width: 15px;"/><rect x="-5" y="-5" rx="14" width="110" height="90" class="djs-outline" style="fill: none;"/></g></g><g class="djs-group"><g class="djs-element djs-shape" data-element-id="Activity_13shynf" style="display: block;" transform="matrix(1 0 0 1 1810 360)"><g class="djs-visual"><rect x="0" y="0" width="100" height="80" rx="10" ry="10" style="stroke-linecap: round; stroke-linejoin: round; stroke: rgb(34, 36, 42); stroke-width: 2px; fill: white; fill-opacity: 0.95;"/><text lineHeight="1.2" class="djs-label" style="font-family: Arial, sans-serif; font-size: 12px; font-weight: normal; fill: rgb(34, 36, 42);"><tspan x="31.390625" y="14.799999999999999">Окно с </tspan><tspan x="10.796875" y="29.199999999999996">поздравление</tspan><tspan x="17.328125" y="43.599999999999994">м клиента с </tspan><tspan x="8.9609375" y="57.99999999999999">прохождением </tspan><tspan x="34.296875" y="72.39999999999999">урока</tspan></text></g><rect class="djs-hit djs-hit-all" x="0" y="0" width="100" height="80" style="fill: none; stroke-opacity: 0; stroke: white; stroke-width: 15px;"/><rect x="-5" y="-5" rx="14" width="110" height="90" class="djs-outline" style="fill: none;"/></g></g><g class="djs-group"><g class="djs-element djs-shape" data-element-id="Activity_0e3xn0g" style="display: block;" transform="matrix(1 0 0 1 2020 400)"><g class="djs-visual"><rect x="0" y="0" width="100" height="80" rx="10" ry="10" style="stroke-linecap: round; stroke-linejoin: round; stroke: rgb(34, 36, 42); stroke-width: 2px; fill: white; fill-opacity: 0.95;"/><text lineHeight="1.2" class="djs-label" style="font-family: Arial, sans-serif; font-size: 12px; font-weight: normal; fill: rgb(34, 36, 42);"><tspan x="16.921875" y="29.200000000000003">Происходит </tspan><tspan x="20.0625" y="43.6">возврат на </tspan><tspan x="21.21875" y="58">экран № 1</tspan></text></g><rect class="djs-hit djs-hit-all" x="0" y="0" width="100" height="80" style="fill: none; stroke-opacity: 0; stroke: white; stroke-width: 15px;"/><rect x="-5" y="-5" rx="14" width="110" height="90" class="djs-outline" style="fill: none;"/></g></g><g class="djs-group"><g class="djs-element djs-shape" data-element-id="Activity_0tx1z47" style="display: block;" transform="matrix(1 0 0 1 1150 460)"><g class="djs-visual"><rect x="0" y="0" width="100" height="80" rx="10" ry="10" style="stroke-linecap: round; stroke-linejoin: round; stroke: rgb(34, 36, 42); stroke-width: 2px; fill: white; fill-opacity: 0.95;"/><text lineHeight="1.2" class="djs-label" style="font-family: Arial, sans-serif; font-size: 12px; font-weight: normal; fill: rgb(34, 36, 42);"><tspan x="12.96875" y="22">Цикл вопрос-</tspan><tspan x="35.0390625" y="36.4">ответ </tspan><tspan x="23.171875" y="50.8">(система-</tspan><tspan x="29.05859375" y="65.19999999999999">клиент)</tspan></text><rect x="0" y="0" width="14" height="14" rx="0" ry="0" style="stroke-linecap: round; stroke-linejoin: round; stroke: rgb(34, 36, 42); stroke-width: 1px; fill: white;" transform="matrix(1 0 0 1 42.5 60)"/><path data-marker="sub-process" d="m42.5,60 m 7,2 l 0,10 m -5,-5 l 10,0" style="fill: white; stroke-linecap: round; stroke-linejoin: round; stroke: rgb(34, 36, 42); stroke-width: 2px;"/></g><rect x="-5" y="-5" rx="14" width="110" height="90" class="djs-outline" style="fill: none;"/><rect class="djs-hit djs-hit-all" x="0" y="0" width="100" height="80" style="fill: none; stroke-opacity: 0; stroke: white; stroke-width: 15px;"/></g></g><g class="djs-group"><g class="djs-element djs-connection" data-element-id="Association_03d5ro4" style="display: block;"><g class="djs-visual"><path data-corner-radius="5" style="fill: none; stroke-linecap: round; stroke-linejoin: round; stroke: rgb(34, 36, 42); stroke-width: 2px; stroke-dasharray: 0, 5;" d="M220,482L220,413"/></g><rect x="215" y="408" rx="4" width="10" height="79" class="djs-outline" style="fill: none;"/><path d="M220,482L220,413" class="djs-hit djs-hit-stroke" style="fill: none; stroke-opacity: 0; stroke: white; stroke-width: 15px;"/></g></g><g class="djs-group"><g class="djs-element djs-connection" data-element-id="Association_0n1x7te" style="display: block;"><g class="djs-visual"><path data-corner-radius="5" style="fill: none; stroke-linecap: round; stroke-linejoin: round; stroke: rgb(34, 36, 42); stroke-width: 2px; stroke-dasharray: 0, 5;" d="M510,460L510,433"/></g><rect x="505" y="428" rx="4" width="10" height="37" class="djs-outline" style="fill: none;"/><path d="M510,460L510,433" class="djs-hit djs-hit-stroke" style="fill: none; stroke-opacity: 0; stroke: white; stroke-width: 15px;"/></g></g><g class="djs-group"><g class="djs-element djs-connection" data-element-id="Association_0w1w356" style="display: block;"><g class="djs-visual"><path data-corner-radius="5" style="fill: none; stroke-linecap: round; stroke-linejoin: round; stroke: rgb(34, 36, 42); stroke-width: 2px; stroke-dasharray: 0, 5;" d="M630,475L630,369"/></g><rect x="625" y="364" rx="4" width="10" height="116" class="djs-outline" style="fill: none;"/><path d="M630,475L630,369" class="djs-hit djs-hit-stroke" style="fill: none; stroke-opacity: 0; stroke: white; stroke-width: 15px;"/></g></g><g class="djs-group"><g class="djs-element djs-connection" data-element-id="Association_16a1whu" style="display: block;"><g class="djs-visual"><path data-corner-radius="5" style="fill: none; stroke-linecap: round; stroke-linejoin: round; stroke: rgb(34, 36, 42); stroke-width: 2px; stroke-dasharray: 0, 5;" d="M1440,620L1440,690"/></g><rect x="1435" y="615" rx="4" width="10" height="80" class="djs-outline" style="fill: none;"/><path d="M1440,620L1440,690" class="djs-hit djs-hit-stroke" style="fill: none; stroke-opacity: 0; stroke: white; stroke-width: 15px;"/></g></g><g class="djs-group"><g class="djs-element djs-connection" data-element-id="Association_0efjkzg" style="display: block;"><g class="djs-visual"><path data-corner-radius="5" style="fill: none; stroke-linecap: round; stroke-linejoin: round; stroke: rgb(34, 36, 42); stroke-width: 2px; stroke-dasharray: 0, 5;" d="M1860,360L1860,323"/></g><rect x="1855" y="318" rx="4" width="10" height="47" class="djs-outline" style="fill: none;"/><path d="M1860,360L1860,323" class="djs-hit djs-hit-stroke" style="fill: none; stroke-opacity: 0; stroke: white; stroke-width: 15px;"/></g></g><g class="djs-group"><g class="djs-element djs-shape" data-element-id="TextAnnotation_0mhzgew" style="display: block;" transform="matrix(1 0 0 1 140 340)"><g class="djs-visual"><rect x="0" y="0" width="170" height="73" rx="0" ry="0" style="stroke-linecap: round; stroke-linejoin: round; stroke: none; stroke-width: 2px; fill: none;"/><path d="m 0, 0 m 10,0 l -10,0 l 0,73 l 10,0" style="fill: none; stroke-linecap: round; stroke-linejoin: round; stroke: rgb(34, 36, 42); stroke-width: 2px;"/><text lineHeight="1.2" class="djs-label" style="font-family: Arial, sans-serif; font-size: 12px; font-weight: normal; fill: rgb(34, 36, 42);"><tspan x="7" y="17.799999999999997">Клиент вошел в мобильное </tspan><tspan x="7" y="32.199999999999996">приложение (клиент </tspan><tspan x="7" y="46.599999999999994">зарегистрирован и </tspan><tspan x="7" y="60.99999999999999">авторизован)</tspan></text></g><rect class="djs-hit djs-hit-all" x="0" y="0" width="170" height="73" style="fill: none; stroke-opacity: 0; stroke: white; stroke-width: 15px;"/><rect x="-5" y="-5" rx="4" width="180" height="83" class="djs-outline" style="fill: none;"/></g></g><g class="djs-group"><g class="djs-element djs-shape" data-element-id="TextAnnotation_0bbped8" style="display: block;" transform="matrix(1 0 0 1 460 320)"><g class="djs-visual"><rect x="0" y="0" width="100" height="113" rx="0" ry="0" style="stroke-linecap: round; stroke-linejoin: round; stroke: none; stroke-width: 2px; fill: none;"/><path d="m 0, 0 m 10,0 l -10,0 l 0,113 l 10,0" style="fill: none; stroke-linecap: round; stroke-linejoin: round; stroke: rgb(34, 36, 42); stroke-width: 2px;"/><text lineHeight="1.2" class="djs-label" style="font-family: Arial, sans-serif; font-size: 12px; font-weight: normal; fill: rgb(34, 36, 42);"><tspan x="7" y="17.799999999999997">В окне </tspan><tspan x="7" y="32.199999999999996">"Диалоги" </tspan><tspan x="7" y="46.599999999999994">клиент </tspan><tspan x="7" y="60.99999999999999">нажимает </tspan><tspan x="7" y="75.39999999999999">кнопку </tspan><tspan x="7" y="89.79999999999998">"Говорить" </tspan><tspan x="7" y="104.19999999999999">(экран № 2)</tspan></text></g><rect class="djs-hit djs-hit-all" x="0" y="0" width="100" height="113" style="fill: none; stroke-opacity: 0; stroke: white; stroke-width: 15px;"/><rect x="-5" y="-5" rx="4" width="110" height="123" class="djs-outline" style="fill: none;"/></g></g><g class="djs-group"><g class="djs-element djs-shape" data-element-id="TextAnnotation_03gv8eq" style="display: block;" transform="matrix(1 0 0 1 580 170)"><g class="djs-visual"><rect x="0" y="0" width="100" height="199" rx="0" ry="0" style="stroke-linecap: round; stroke-linejoin: round; stroke: none; stroke-width: 2px; fill: none;"/><path d="m 0, 0 m 10,0 l -10,0 l 0,199 l 10,0" style="fill: none; stroke-linecap: round; stroke-linejoin: round; stroke: rgb(34, 36, 42); stroke-width: 2px;"/><text lineHeight="1.2" class="djs-label" style="font-family: Arial, sans-serif; font-size: 12px; font-weight: normal; fill: rgb(34, 36, 42);"><tspan x="7" y="17.799999999999997">Клиент </tspan><tspan x="7" y="32.199999999999996">выбирает </tspan><tspan x="7" y="46.599999999999994">начать урок </tspan><tspan x="7" y="60.99999999999999">через выбор </tspan><tspan x="7" y="75.39999999999999">конкретной </tspan><tspan x="7" y="89.79999999999998">темы </tspan><tspan x="7" y="104.19999999999999">нажатием на </tspan><tspan x="7" y="118.6">кнопку "Тема" </tspan><tspan x="7" y="133">или случайной </tspan><tspan x="7" y="147.4">темы </tspan><tspan x="7" y="161.8">нажатием на </tspan><tspan x="7" y="176.20000000000002">кнопку "Старт"</tspan><tspan x="7" y="190.60000000000002">(экран № 3)</tspan></text></g><rect class="djs-hit djs-hit-all" x="0" y="0" width="100" height="199" style="fill: none; stroke-opacity: 0; stroke: white; stroke-width: 15px;"/><rect x="-5" y="-5" rx="4" width="110" height="209" class="djs-outline" style="fill: none;"/></g></g><g class="djs-group"><g class="djs-element djs-shape" data-element-id="TextAnnotation_0fcdk9v" style="display: block;" transform="matrix(1 0 0 1 1390 690)"><g class="djs-visual"><rect x="0" y="0" width="99.99156545209178" height="70.17543859649123" rx="0" ry="0" style="stroke-linecap: round; stroke-linejoin: round; stroke: none; stroke-width: 2px; fill: none;"/><path d="m 0, 0 m 10,0 l -10,0 l 0,70.17543859649123 l 10,0" style="fill: none; stroke-linecap: round; stroke-linejoin: round; stroke: rgb(34, 36, 42); stroke-width: 2px;"/><text lineHeight="1.2" class="djs-label" style="font-family: Arial, sans-serif; font-size: 12px; font-weight: normal; fill: rgb(34, 36, 42);"><tspan x="7" y="17.799999999999997">Клиент </tspan><tspan x="7" y="32.199999999999996">нажимает на </tspan><tspan x="7" y="46.599999999999994">крестик на </tspan><tspan x="7" y="60.99999999999999">экране № 4</tspan></text></g><rect class="djs-hit djs-hit-all" x="0" y="0" width="99.99156545209178" height="70.17543859649123" style="fill: none; stroke-opacity: 0; stroke: white; stroke-width: 15px;"/><rect x="-5" y="-5" rx="4" width="109.99156545209178" height="80.17543859649123" class="djs-outline" style="fill: none;"/></g></g><g class="djs-group"><g class="djs-element djs-shape" data-element-id="TextAnnotation_06l94oj" style="display: block;" transform="matrix(1 0 0 1 1810 80)"><g class="djs-visual"><rect x="0" y="0" width="99.99156545209178" height="242.91497975708504" rx="0" ry="0" style="stroke-linecap: round; stroke-linejoin: round; stroke: none; stroke-width: 2px; fill: none;"/><path d="m 0, 0 m 10,0 l -10,0 l 0,242.914979757085 l 10,0" style="fill: none; stroke-linecap: round; stroke-linejoin: round; stroke: rgb(34, 36, 42); stroke-width: 2px;"/><text lineHeight="1.2" class="djs-label" style="font-family: Arial, sans-serif; font-size: 12px; font-weight: normal; fill: rgb(34, 36, 42);"><tspan x="7" y="17.799999999999997">После 10 </tspan><tspan x="7" y="32.199999999999996">ответов </tspan><tspan x="7" y="46.599999999999994">клиента </tspan><tspan x="7" y="60.99999999999999">система </tspan><tspan x="7" y="75.39999999999999">отображает </tspan><tspan x="7" y="89.79999999999998">всплывающее </tspan><tspan x="7" y="104.19999999999999">окно с </tspan><tspan x="7" y="118.6">поздравление</tspan><tspan x="7" y="133">м клиента с </tspan><tspan x="7" y="147.4">прохождением </tspan><tspan x="7" y="161.8">урока и </tspan><tspan x="7" y="176.20000000000002">сообщает о </tspan><tspan x="7" y="190.60000000000002">начислении </tspan><tspan x="7" y="205.00000000000003">ему 20 очков </tspan><tspan x="7" y="219.40000000000003">опыта (экран </tspan><tspan x="7" y="233.80000000000004">№ 5)</tspan></text></g><rect class="djs-hit djs-hit-all" x="0" y="0" width="99.99156545209178" height="242.91497975708504" style="fill: none; stroke-opacity: 0; stroke: white; stroke-width: 15px;"/><rect x="-5" y="-5" rx="4" width="109.99156545209178" height="252.91497975708504" class="djs-outline" style="fill: none;"/></g></g><g class="djs-group"><g class="djs-element djs-connection" data-element-id="Flow_0nhtldd" style="display: block;"><g class="djs-visual"><defs><marker id="marker-7pz11njdap3h4ket0l2svr6du" viewBox="0 0 20 20" refX="11" refY="10" markerWidth="10" markerHeight="10" orient="auto"><path d="M 1 5 L 11 10 L 1 15 Z" style="stroke-linecap: round; stroke-linejoin: round; stroke: rgb(34, 36, 42); stroke-width: 1px; fill: rgb(34, 36, 42);"/></marker></defs><path data-corner-radius="5" style="fill: none; stroke-linecap: round; stroke-linejoin: round; stroke: rgb(34, 36, 42); stroke-width: 2px; marker-end: url('#marker-7pz11njdap3h4ket0l2svr6du');" d="M238,500L310,500"/></g><rect x="233" y="495" rx="4" width="82" height="10" class="djs-outline" style="fill: none;"/><path d="M238,500L310,500" class="djs-hit djs-hit-stroke" style="fill: none; stroke-opacity: 0; stroke: white; stroke-width: 15px;"/></g></g><g class="djs-group"><g class="djs-element djs-connection" data-element-id="Flow_1uo1cus" style="display: block;"><g class="djs-visual"><defs><marker id="marker-3x9rpvehk9hdhsc608wrkyfpx" viewBox="0 0 20 20" refX="11" refY="10" markerWidth="10" markerHeight="10" orient="auto"><path d="M 1 5 L 11 10 L 1 15 Z" style="stroke-linecap: round; stroke-linejoin: round; stroke: rgb(34, 36, 42); stroke-width: 1px; fill: rgb(34, 36, 42);"/></marker></defs><path data-corner-radius="5" style="fill: none; stroke-linecap: round; stroke-linejoin: round; stroke: rgb(34, 36, 42); stroke-width: 2px; marker-end: url('#marker-3x9rpvehk9hdhsc608wrkyfpx');" d="M410,500L460,500"/></g><rect x="405" y="495" rx="4" width="60" height="10" class="djs-outline" style="fill: none;"/><path d="M410,500L460,500" class="djs-hit djs-hit-stroke" style="fill: none; stroke-opacity: 0; stroke: white; stroke-width: 15px;"/></g></g><g class="djs-group"><g class="djs-element djs-connection" data-element-id="Flow_1bodm8h" style="display: block;"><g class="djs-visual"><defs><marker id="marker-32mqzd645k32945osumn1sf90" viewBox="0 0 20 20" refX="11" refY="10" markerWidth="10" markerHeight="10" orient="auto"><path d="M 1 5 L 11 10 L 1 15 Z" style="stroke-linecap: round; stroke-linejoin: round; stroke: rgb(34, 36, 42); stroke-width: 1px; fill: rgb(34, 36, 42);"/></marker></defs><path data-corner-radius="5" style="fill: none; stroke-linecap: round; stroke-linejoin: round; stroke: rgb(34, 36, 42); stroke-width: 2px; marker-end: url('#marker-32mqzd645k32945osumn1sf90');" d="M560,500L605,500"/></g><rect x="555" y="495" rx="4" width="55" height="10" class="djs-outline" style="fill: none;"/><path d="M560,500L605,500" class="djs-hit djs-hit-stroke" style="fill: none; stroke-opacity: 0; stroke: white; stroke-width: 15px;"/></g></g><g class="djs-group"><g class="djs-element djs-connection" data-element-id="Flow_1jz0v9d" style="display: block;"><g class="djs-visual"><defs><marker id="marker-bjd55bvyszzvpwlpek8utkfmv" viewBox="0 0 20 20" refX="11" refY="10" markerWidth="10" markerHeight="10" orient="auto"><path d="M 1 5 L 11 10 L 1 15 Z" style="stroke-linecap: round; stroke-linejoin: round; stroke: rgb(34, 36, 42); stroke-width: 1px; fill: rgb(34, 36, 42);"/></marker></defs><path data-corner-radius="5" style="fill: none; stroke-linecap: round; stroke-linejoin: round; stroke: rgb(34, 36, 42); stroke-width: 2px; marker-end: url('#marker-bjd55bvyszzvpwlpek8utkfmv');" d="M630,475L630,425C630,422.5,632.5,420,635,420L760,420"/></g><rect x="625" y="415" rx="4" width="140" height="65" class="djs-outline" style="fill: none;"/><path d="M630,475L630,420L760,420" class="djs-hit djs-hit-stroke" style="fill: none; stroke-opacity: 0; stroke: white; stroke-width: 15px;"/></g></g><g class="djs-group"><g class="djs-element djs-connection" data-element-id="Flow_18vjpt9" style="display: block;"><g class="djs-visual"><defs><marker id="marker-45r68ulp8qb12lles76w1dkmt" viewBox="0 0 20 20" refX="11" refY="10" markerWidth="10" markerHeight="10" orient="auto"><path d="M 1 5 L 11 10 L 1 15 Z" style="stroke-linecap: round; stroke-linejoin: round; stroke: rgb(34, 36, 42); stroke-width: 1px; fill: rgb(34, 36, 42);"/></marker></defs><path data-corner-radius="5" style="fill: none; stroke-linecap: round; stroke-linejoin: round; stroke: rgb(34, 36, 42); stroke-width: 2px; marker-end: url('#marker-45r68ulp8qb12lles76w1dkmt');" d="M630,525L630,575C630,577.5,632.5,580,635,580L760,580"/></g><rect x="625" y="520" rx="4" width="140" height="65" class="djs-outline" style="fill: none;"/><path d="M630,525L630,580L760,580" class="djs-hit djs-hit-stroke" style="fill: none; stroke-opacity: 0; stroke: white; stroke-width: 15px;"/></g></g><g class="djs-group"><g class="djs-element djs-connection" data-element-id="Flow_0e72ekg" style="display: block;"><g class="djs-visual"><defs><marker id="marker-exs6mspb5r13q1vedvntzza1e" viewBox="0 0 20 20" refX="11" refY="10" markerWidth="10" markerHeight="10" orient="auto"><path d="M 1 5 L 11 10 L 1 15 Z" style="stroke-linecap: round; stroke-linejoin: round; stroke: rgb(34, 36, 42); stroke-width: 1px; fill: rgb(34, 36, 42);"/></marker></defs><path data-corner-radius="5" style="fill: none; stroke-linecap: round; stroke-linejoin: round; stroke: rgb(34, 36, 42); stroke-width: 2px; marker-end: url('#marker-exs6mspb5r13q1vedvntzza1e');" d="M860,420L910,420C912.5,420,915,422.5,915,425L915,495C915,497.5,917.5,500,920,500L990,500"/></g><rect x="855" y="415" rx="4" width="140" height="90" class="djs-outline" style="fill: none;"/><path d="M860,420L915,420L915,500L990,500" class="djs-hit djs-hit-stroke" style="fill: none; stroke-opacity: 0; stroke: white; stroke-width: 15px;"/></g></g><g class="djs-group"><g class="djs-element djs-connection" data-element-id="Flow_0fjva42" style="display: block;"><g class="djs-visual"><defs><marker id="marker-6zysyteim2o5y35dds8bs8kjp" viewBox="0 0 20 20" refX="11" refY="10" markerWidth="10" markerHeight="10" orient="auto"><path d="M 1 5 L 11 10 L 1 15 Z" style="stroke-linecap: round; stroke-linejoin: round; stroke: rgb(34, 36, 42); stroke-width: 1px; fill: rgb(34, 36, 42);"/></marker></defs><path data-corner-radius="5" style="fill: none; stroke-linecap: round; stroke-linejoin: round; stroke: rgb(34, 36, 42); stroke-width: 2px; marker-end: url('#marker-6zysyteim2o5y35dds8bs8kjp');" d="M860,580L910,580C912.5,580,915,577.5,915,575L915,505C915,502.5,917.5,500,920,500L990,500"/></g><rect x="855" y="495" rx="4" width="140" height="90" class="djs-outline" style="fill: none;"/><path d="M860,580L915,580L915,500L990,500" class="djs-hit djs-hit-stroke" style="fill: none; stroke-opacity: 0; stroke: white; stroke-width: 15px;"/></g></g><g class="djs-group"><g class="djs-element djs-connection" data-element-id="Flow_0c3ahqm" style="display: block;"><g class="djs-visual"><defs><marker id="marker-4g9mzawek7mbt4is7ng70w9r7" viewBox="0 0 20 20" refX="11" refY="10" markerWidth="10" markerHeight="10" orient="auto"><path d="M 1 5 L 11 10 L 1 15 Z" style="stroke-linecap: round; stroke-linejoin: round; stroke: rgb(34, 36, 42); stroke-width: 1px; fill: rgb(34, 36, 42);"/></marker></defs><path data-corner-radius="5" style="fill: none; stroke-linecap: round; stroke-linejoin: round; stroke: rgb(34, 36, 42); stroke-width: 2px; marker-end: url('#marker-4g9mzawek7mbt4is7ng70w9r7');" d="M1090,500L1150,500"/></g><rect x="1085" y="495" rx="4" width="70" height="10" class="djs-outline" style="fill: none;"/><path d="M1090,500L1150,500" class="djs-hit djs-hit-stroke" style="fill: none; stroke-opacity: 0; stroke: white; stroke-width: 15px;"/></g></g><g class="djs-group"><g class="djs-element djs-connection" data-element-id="Flow_0qfk2hj" style="display: block;"><g class="djs-visual"><defs><marker id="marker-6lc5nphgynajvguvcz8t0xboj" viewBox="0 0 20 20" refX="11" refY="10" markerWidth="10" markerHeight="10" orient="auto"><path d="M 1 5 L 11 10 L 1 15 Z" style="stroke-linecap: round; stroke-linejoin: round; stroke: rgb(34, 36, 42); stroke-width: 1px; fill: rgb(34, 36, 42);"/></marker></defs><path data-corner-radius="5" style="fill: none; stroke-linecap: round; stroke-linejoin: round; stroke: rgb(34, 36, 42); stroke-width: 2px; marker-end: url('#marker-6lc5nphgynajvguvcz8t0xboj');" d="M1250,500L1295,500"/></g><rect x="1245" y="495" rx="4" width="55" height="10" class="djs-outline" style="fill: none;"/><path d="M1250,500L1295,500" class="djs-hit djs-hit-stroke" style="fill: none; stroke-opacity: 0; stroke: white; stroke-width: 15px;"/></g></g><g class="djs-group"><g class="djs-element djs-connection" data-element-id="Flow_1dg1uft" style="display: block;"><g class="djs-visual"><defs><marker id="marker-c5wz8vvg15arktga0n9apgm2z" viewBox="0 0 20 20" refX="11" refY="10" markerWidth="10" markerHeight="10" orient="auto"><path d="M 1 5 L 11 10 L 1 15 Z" style="stroke-linecap: round; stroke-linejoin: round; stroke: rgb(34, 36, 42); stroke-width: 1px; fill: rgb(34, 36, 42);"/></marker></defs><path data-corner-radius="5" style="fill: none; stroke-linecap: round; stroke-linejoin: round; stroke: rgb(34, 36, 42); stroke-width: 2px; marker-end: url('#marker-c5wz8vvg15arktga0n9apgm2z');" d="M1320,475L1320,405C1320,402.5,1322.5,400,1325,400L1810,400"/></g><rect x="1315" y="395" rx="4" width="500" height="85" class="djs-outline" style="fill: none;"/><path d="M1320,475L1320,400L1810,400" class="djs-hit djs-hit-stroke" style="fill: none; stroke-opacity: 0; stroke: white; stroke-width: 15px;"/></g></g><g class="djs-group"><g class="djs-element djs-connection" data-element-id="Flow_149m6n8" style="display: block;"><g class="djs-visual"><defs><marker id="marker-bu8d727qb546c7xnf4sm36u4n" viewBox="0 0 20 20" refX="11" refY="10" markerWidth="10" markerHeight="10" orient="auto"><path d="M 1 5 L 11 10 L 1 15 Z" style="stroke-linecap: round; stroke-linejoin: round; stroke: rgb(34, 36, 42); stroke-width: 1px; fill: rgb(34, 36, 42);"/></marker></defs><path data-corner-radius="5" style="fill: none; stroke-linecap: round; stroke-linejoin: round; stroke: rgb(34, 36, 42); stroke-width: 2px; marker-end: url('#marker-bu8d727qb546c7xnf4sm36u4n');" d="M1320,525L1320,575C1320,577.5,1322.5,580,1325,580L1390,580"/></g><rect x="1315" y="520" rx="4" width="80" height="65" class="djs-outline" style="fill: none;"/><path d="M1320,525L1320,580L1390,580" class="djs-hit djs-hit-stroke" style="fill: none; stroke-opacity: 0; stroke: white; stroke-width: 15px;"/></g></g><g class="djs-group"><g class="djs-element djs-connection" data-element-id="Flow_076mbl8" style="display: block;"><g class="djs-visual"><defs><marker id="marker-bosclzlbz1zo8tbswlz2io47s" viewBox="0 0 20 20" refX="11" refY="10" markerWidth="10" markerHeight="10" orient="auto"><path d="M 1 5 L 11 10 L 1 15 Z" style="stroke-linecap: round; stroke-linejoin: round; stroke: rgb(34, 36, 42); stroke-width: 1px; fill: rgb(34, 36, 42);"/></marker></defs><path data-corner-radius="5" style="fill: none; stroke-linecap: round; stroke-linejoin: round; stroke: rgb(34, 36, 42); stroke-width: 2px; marker-end: url('#marker-bosclzlbz1zo8tbswlz2io47s');" d="M1490,580L1550,580"/></g><rect x="1485" y="575" rx="4" width="70" height="10" class="djs-outline" style="fill: none;"/><path d="M1490,580L1550,580" class="djs-hit djs-hit-stroke" style="fill: none; stroke-opacity: 0; stroke: white; stroke-width: 15px;"/></g></g><g class="djs-group"><g class="djs-element djs-connection" data-element-id="Flow_1ght8rz" style="display: block;"><g class="djs-visual"><defs><marker id="marker-69cla576bls7viqgbp0njz124" viewBox="0 0 20 20" refX="11" refY="10" markerWidth="10" markerHeight="10" orient="auto"><path d="M 1 5 L 11 10 L 1 15 Z" style="stroke-linecap: round; stroke-linejoin: round; stroke: rgb(34, 36, 42); stroke-width: 1px; fill: rgb(34, 36, 42);"/></marker></defs><path data-corner-radius="5" style="fill: none; stroke-linecap: round; stroke-linejoin: round; stroke: rgb(34, 36, 42); stroke-width: 2px; marker-end: url('#marker-69cla576bls7viqgbp0njz124');" d="M1650,580L1705,580"/></g><rect x="1645" y="575" rx="4" width="65" height="10" class="djs-outline" style="fill: none;"/><path d="M1650,580L1705,580" class="djs-hit djs-hit-stroke" style="fill: none; stroke-opacity: 0; stroke: white; stroke-width: 15px;"/></g></g><g class="djs-group"><g class="djs-element djs-connection" data-element-id="Flow_0vcmkae" style="display: block;"><g class="djs-visual"><defs><marker id="marker-8fxucj74ougww065c7d60qv21" viewBox="0 0 20 20" refX="11" refY="10" markerWidth="10" markerHeight="10" orient="auto"><path d="M 1 5 L 11 10 L 1 15 Z" style="stroke-linecap: round; stroke-linejoin: round; stroke: rgb(34, 36, 42); stroke-width: 1px; fill: rgb(34, 36, 42);"/></marker></defs><path data-corner-radius="5" style="fill: none; stroke-linecap: round; stroke-linejoin: round; stroke: rgb(34, 36, 42); stroke-width: 2px; marker-end: url('#marker-8fxucj74ougww065c7d60qv21');" d="M1730,555L1730,495C1730,492.5,1732.5,490,1735,490L1810,490"/></g><rect x="1725" y="485" rx="4" width="90" height="75" class="djs-outline" style="fill: none;"/><path d="M1730,555L1730,490L1810,490" class="djs-hit djs-hit-stroke" style="fill: none; stroke-opacity: 0; stroke: white; stroke-width: 15px;"/></g></g><g class="djs-group"><g class="djs-element djs-connection" data-element-id="Flow_18akq2a" style="display: block;"><g class="djs-visual"><defs><marker id="marker-9ragcj0x4l5ysx2ura96mbn8r" viewBox="0 0 20 20" refX="11" refY="10" markerWidth="10" markerHeight="10" orient="auto"><path d="M 1 5 L 11 10 L 1 15 Z" style="stroke-linecap: round; stroke-linejoin: round; stroke: rgb(34, 36, 42); stroke-width: 1px; fill: rgb(34, 36, 42);"/></marker></defs><path data-corner-radius="5" style="fill: none; stroke-linecap: round; stroke-linejoin: round; stroke: rgb(34, 36, 42); stroke-width: 2px; marker-end: url('#marker-9ragcj0x4l5ysx2ura96mbn8r');" d="M1730,605L1730,665C1730,667.5,1732.5,670,1735,670L1810,670"/></g><rect x="1725" y="600" rx="4" width="90" height="75" class="djs-outline" style="fill: none;"/><path d="M1730,605L1730,670L1810,670" class="djs-hit djs-hit-stroke" style="fill: none; stroke-opacity: 0; stroke: white; stroke-width: 15px;"/></g></g><g class="djs-group"><g class="djs-element djs-connection" data-element-id="Flow_02t4blv" style="display: block;"><g class="djs-visual"><defs><marker id="marker-0e5o1l9xoy1ruah19xcj0pzf8" viewBox="0 0 20 20" refX="11" refY="10" markerWidth="10" markerHeight="10" orient="auto"><path d="M 1 5 L 11 10 L 1 15 Z" style="stroke-linecap: round; stroke-linejoin: round; stroke: rgb(34, 36, 42); stroke-width: 1px; fill: rgb(34, 36, 42);"/></marker></defs><path data-corner-radius="5" style="fill: none; stroke-linecap: round; stroke-linejoin: round; stroke: rgb(34, 36, 42); stroke-width: 2px; marker-end: url('#marker-0e5o1l9xoy1ruah19xcj0pzf8');" d="M1910,490L1960,490C1962.5,490,1965,487.5,1965,485L1965,445C1965,442.5,1967.5,440,1970,440L2020,440"/></g><rect x="1905" y="435" rx="4" width="120" height="60" class="djs-outline" style="fill: none;"/><path d="M1910,490L1965,490L1965,440L2020,440" class="djs-hit djs-hit-stroke" style="fill: none; stroke-opacity: 0; stroke: white; stroke-width: 15px;"/></g></g><g class="djs-group"><g class="djs-element djs-connection" data-element-id="Flow_02d5y56" style="display: block;"><g class="djs-visual"><defs><marker id="marker-499ebei3jtfvbnnymp5nbahsq" viewBox="0 0 20 20" refX="11" refY="10" markerWidth="10" markerHeight="10" orient="auto"><path d="M 1 5 L 11 10 L 1 15 Z" style="stroke-linecap: round; stroke-linejoin: round; stroke: rgb(34, 36, 42); stroke-width: 1px; fill: rgb(34, 36, 42);"/></marker></defs><path data-corner-radius="5" style="fill: none; stroke-linecap: round; stroke-linejoin: round; stroke: rgb(34, 36, 42); stroke-width: 2px; marker-end: url('#marker-499ebei3jtfvbnnymp5nbahsq');" d="M1860,710L1860,815C1860,817.5,1857.5,820,1855,820L1205,820C1202.5,820,1200,817.5,1200,815L1200,540"/></g><rect x="1195" y="535" rx="4" width="670" height="290" class="djs-outline" style="fill: none;"/><path d="M1860,710L1860,820L1200,820L1200,540" class="djs-hit djs-hit-stroke" style="fill: none; stroke-opacity: 0; stroke: white; stroke-width: 15px;"/></g></g><g class="djs-group"><g class="djs-element djs-connection" data-element-id="Flow_1qw5ux5" style="display: block;"><g class="djs-visual"><defs><marker id="marker-8v6mvcsyfc7cd1v9kfkofwxsw" viewBox="0 0 20 20" refX="11" refY="10" markerWidth="10" markerHeight="10" orient="auto"><path d="M 1 5 L 11 10 L 1 15 Z" style="stroke-linecap: round; stroke-linejoin: round; stroke: rgb(34, 36, 42); stroke-width: 1px; fill: rgb(34, 36, 42);"/></marker></defs><path data-corner-radius="5" style="fill: none; stroke-linecap: round; stroke-linejoin: round; stroke: rgb(34, 36, 42); stroke-width: 2px; marker-end: url('#marker-8v6mvcsyfc7cd1v9kfkofwxsw');" d="M1910,400L1960,400C1962.5,400,1965,402.5,1965,405L1965,435C1965,437.5,1967.5,440,1970,440L2020,440"/></g><rect x="1905" y="395" rx="4" width="120" height="50" class="djs-outline" style="fill: none;"/><path d="M1910,400L1965,400L1965,440L2020,440" class="djs-hit djs-hit-stroke" style="fill: none; stroke-opacity: 0; stroke: white; stroke-width: 15px;"/></g></g></svg>