<?xml version="1.0" encoding="utf-8"?>
<!-- created with bpmn-js / http://bpmn.io -->
<!DOCTYPE svg PUBLIC "-//W3C//DTD SVG 1.1//EN" "http://www.w3.org/Graphics/SVG/1.1/DTD/svg11.dtd">
<svg xmlns="http://www.w3.org/2000/svg" xmlns:xlink="http://www.w3.org/1999/xlink" width="1379" height="750" viewBox="150 75 1379 750" version="1.1"><defs><pattern id="djs-grid-pattern-757305" width="10" height="10" patternUnits="userSpaceOnUse"><circle cx="0.5" cy="0.5" r="0.5" style="fill: rgb(204, 204, 204);"/></pattern></defs><g class="djs-group"><g class="djs-element djs-shape" data-element-id="Event_1e6q426" style="display: block;" transform="matrix(1 0 0 1 202 482)"><g class="djs-visual"><circle cx="18" cy="18" r="18" style="stroke-linecap: round; stroke-linejoin: round; stroke: rgb(34, 36, 42); stroke-width: 2px; fill: white; fill-opacity: 0.95;"/></g><rect class="djs-hit djs-hit-all" x="0" y="0" width="36" height="36" style="fill: none; stroke-opacity: 0; stroke: white; stroke-width: 15px;"/><circle cx="18" cy="18" r="23" class="djs-outline" style="fill: none;"/></g></g><g class="djs-group"><g class="djs-element djs-shape" data-element-id="Activity_0ltlf0s" style="display: block;" transform="matrix(1 0 0 1 300 460)"><g class="djs-visual"><rect x="0" y="0" width="100" height="80" rx="10" ry="10" style="stroke-linecap: round; stroke-linejoin: round; stroke: rgb(34, 36, 42); stroke-width: 2px; fill: white; fill-opacity: 0.95;"/><text lineHeight="1.2" class="djs-label" style="font-family: Arial, sans-serif; font-size: 12px; font-weight: normal; fill: rgb(34, 36, 42);"><tspan x="11.7265625" y="22">Начало урока </tspan><tspan x="14.96484375" y="36.4">через выбор </tspan><tspan x="23.671875" y="50.8">темы или </tspan><tspan x="10.8828125" y="65.19999999999999">кнопку "старт"</tspan></text></g><rect class="djs-hit djs-hit-all" x="0" y="0" width="100" height="80" style="fill: none; stroke-opacity: 0; stroke: white; stroke-width: 15px;"/><rect x="-5" y="-5" rx="14" width="110" height="90" class="djs-outline" style="fill: none;"/></g></g><g class="djs-group"><g class="djs-element djs-shape" data-element-id="Activity_0e55j6j" style="display: block;" transform="matrix(1 0 0 1 460 460)"><g class="djs-visual"><rect x="0" y="0" width="100" height="80" rx="10" ry="10" style="stroke-linecap: round; stroke-linejoin: round; stroke: rgb(34, 36, 42); stroke-width: 2px; fill: white; fill-opacity: 0.95;"/><text lineHeight="1.2" class="djs-label" style="font-family: Arial, sans-serif; font-size: 12px; font-weight: normal; fill: rgb(34, 36, 42);"><tspan x="25.8359375" y="14.799999999999999">Система </tspan><tspan x="17.4296875" y="29.199999999999996">отображает </tspan><tspan x="19.35546875" y="43.599999999999994">интерфейс </tspan><tspan x="14.9609375" y="57.99999999999999">урока (экран </tspan><tspan x="36.55859375" y="72.39999999999999">№ 4)</tspan></text></g><rect class="djs-hit djs-hit-all" x="0" y="0" width="100" height="80" style="fill: none; stroke-opacity: 0; stroke: white; stroke-width: 15px;"/><rect x="-5" y="-5" rx="14" width="110" height="90" class="djs-outline" style="fill: none;"/></g></g><g class="djs-group"><g class="djs-element djs-shape" data-element-id="Activity_0tx1z47" style="display: block;" transform="matrix(1 0 0 1 620 460)"><g class="djs-visual"><rect x="0" y="0" width="100" height="80" rx="10" ry="10" style="stroke-linecap: round; stroke-linejoin: round; stroke: rgb(34, 36, 42); stroke-width: 2px; fill: white; fill-opacity: 0.95;"/><text lineHeight="1.2" class="djs-label" style="font-family: Arial, sans-serif; font-size: 12px; font-weight: normal; fill: rgb(34, 36, 42);"><tspan x="25.234375" y="14.799999999999999">Клиент и </tspan><tspan x="25.8359375" y="29.199999999999996">Система </tspan><tspan x="16.35546875" y="43.599999999999994">обменялись </tspan><tspan x="36.828125" y="57.99999999999999">10-ю </tspan><tspan x="11.22265625" y="72.39999999999999">сообщениями</tspan></text><rect x="0" y="0" width="14" height="14" rx="0" ry="0" style="stroke-linecap: round; stroke-linejoin: round; stroke: rgb(34, 36, 42); stroke-width: 1px; fill: white;" transform="matrix(1 0 0 1 42.5 60)"/><path data-marker="sub-process" d="m42.5,60 m 7,2 l 0,10 m -5,-5 l 10,0" style="fill: white; stroke-linecap: round; stroke-linejoin: round; stroke: rgb(34, 36, 42); stroke-width: 2px;"/></g><rect x="-5" y="-5" rx="14" width="110" height="90" class="djs-outline" style="fill: none;"/><rect class="djs-hit djs-hit-all" x="0" y="0" width="100" height="80" style="fill: none; stroke-opacity: 0; stroke: white; stroke-width: 15px;"/></g></g><g class="djs-group"><g class="djs-element djs-shape" data-element-id="Activity_13shynf" style="display: block;" transform="matrix(1 0 0 1 1280 360)"><g class="djs-visual"><rect x="0" y="0" width="100" height="80" rx="10" ry="10" style="stroke-linecap: round; stroke-linejoin: round; stroke: rgb(34, 36, 42); stroke-width: 2px; fill: white; fill-opacity: 0.95;"/><text lineHeight="1.2" class="djs-label" style="font-family: Arial, sans-serif; font-size: 12px; font-weight: normal; fill: rgb(34, 36, 42);"><tspan x="31.390625" y="14.799999999999999">Окно с </tspan><tspan x="10.796875" y="29.199999999999996">поздравление</tspan><tspan x="17.328125" y="43.599999999999994">м клиента с </tspan><tspan x="8.9609375" y="57.99999999999999">прохождением </tspan><tspan x="34.296875" y="72.39999999999999">урока</tspan></text></g><rect class="djs-hit djs-hit-all" x="0" y="0" width="100" height="80" style="fill: none; stroke-opacity: 0; stroke: white; stroke-width: 15px;"/><rect x="-5" y="-5" rx="14" width="110" height="90" class="djs-outline" style="fill: none;"/></g></g><g class="djs-group"><g class="djs-element djs-shape" data-element-id="Activity_1x4lemx" style="display: block;" transform="matrix(1 0 0 1 1020 540)"><g class="djs-visual"><rect x="0" y="0" width="100" height="80" rx="10" ry="10" style="stroke-linecap: round; stroke-linejoin: round; stroke: rgb(34, 36, 42); stroke-width: 2px; fill: white; fill-opacity: 0.95;"/><text lineHeight="1.2" class="djs-label" style="font-family: Arial, sans-serif; font-size: 12px; font-weight: normal; fill: rgb(34, 36, 42);"><tspan x="25.8359375" y="7.599999999999996">Система </tspan><tspan x="17.4296875" y="21.999999999999993">отображает </tspan><tspan x="25.46875" y="36.39999999999999">окно для </tspan><tspan x="32.44140625" y="50.79999999999999">подтв. </tspan><tspan x="16.05078125" y="65.19999999999999">завершения </tspan><tspan x="34.296875" y="79.6">урока</tspan></text></g><rect class="djs-hit djs-hit-all" x="0" y="0" width="100" height="80" style="fill: none; stroke-opacity: 0; stroke: white; stroke-width: 15px;"/><rect x="-5" y="-5" rx="14" width="110" height="90" class="djs-outline" style="fill: none;"/></g></g><g class="djs-group"><g class="djs-element djs-shape" data-element-id="Gateway_0gp6bl5" style="display: block;" transform="matrix(1 0 0 1 1175 555)"><g class="djs-visual"><polygon points="25,0 50,25 25,50 0,25" style="stroke-linecap: round; stroke-linejoin: round; stroke: rgb(34, 36, 42); stroke-width: 2px; fill: white; fill-opacity: 0.95;"/><path d="m 16,15 7.42857142857143,9.714285714285715 -7.42857142857143,9.714285714285715 3.428571428571429,0 5.714285714285715,-7.464228571428572 5.714285714285715,7.464228571428572 3.428571428571429,0 -7.42857142857143,-9.714285714285715 7.42857142857143,-9.714285714285715 -3.428571428571429,0 -5.714285714285715,7.464228571428572 -5.714285714285715,-7.464228571428572 -3.428571428571429,0 z" style="fill: rgb(34, 36, 42); stroke-linecap: round; stroke-linejoin: round; stroke: rgb(34, 36, 42); stroke-width: 1px;"/></g><rect class="djs-hit djs-hit-all" x="0" y="0" width="50" height="50" style="fill: none; stroke-opacity: 0; stroke: white; stroke-width: 15px;"/><rect x="2" y="2" rx="4" width="46" height="46" class="djs-outline" style="transform-box: fill-box; transform: rotate(45deg); transform-origin: center center; fill: none;"/></g></g><g class="djs-group"><g class="djs-element djs-shape" data-element-id="Activity_0t8mdnf" style="display: block;" transform="matrix(1 0 0 1 1280 450)"><g class="djs-visual"><rect x="0" y="0" width="100" height="80" rx="10" ry="10" style="stroke-linecap: round; stroke-linejoin: round; stroke: rgb(34, 36, 42); stroke-width: 2px; fill: white; fill-opacity: 0.95;"/><text lineHeight="1.2" class="djs-label" style="font-family: Arial, sans-serif; font-size: 12px; font-weight: normal; fill: rgb(34, 36, 42);"><tspan x="30.25390625" y="22">Клиент </tspan><tspan x="10.765625" y="36.4">подтверждает </tspan><tspan x="15.96484375" y="50.8">завершение </tspan><tspan x="34.296875" y="65.19999999999999">урока</tspan></text></g><rect class="djs-hit djs-hit-all" x="0" y="0" width="100" height="80" style="fill: none; stroke-opacity: 0; stroke: white; stroke-width: 15px;"/><rect x="-5" y="-5" rx="14" width="110" height="90" class="djs-outline" style="fill: none;"/></g></g><g class="djs-group"><g class="djs-element djs-shape" data-element-id="Activity_0lsj4zr" style="display: block;" transform="matrix(1 0 0 1 1280 630)"><g class="djs-visual"><rect x="0" y="0" width="100" height="80" rx="10" ry="10" style="stroke-linecap: round; stroke-linejoin: round; stroke: rgb(34, 36, 42); stroke-width: 2px; fill: white; fill-opacity: 0.95;"/><text lineHeight="1.2" class="djs-label" style="font-family: Arial, sans-serif; font-size: 12px; font-weight: normal; fill: rgb(34, 36, 42);"><tspan x="30.25390625" y="22">Клиент </tspan><tspan x="23.15234375" y="36.4">выбирает </tspan><tspan x="16.76171875" y="50.8">продолжить </tspan><tspan x="37.7216796875" y="65.19999999999999">урок</tspan></text></g><rect class="djs-hit djs-hit-all" x="0" y="0" width="100" height="80" style="fill: none; stroke-opacity: 0; stroke: white; stroke-width: 15px;"/><rect x="-5" y="-5" rx="14" width="110" height="90" class="djs-outline" style="fill: none;"/></g></g><g class="djs-group"><g class="djs-element djs-shape" data-element-id="Gateway_0fn3m13" style="display: block;" transform="matrix(1 0 0 1 775 475)"><g class="djs-visual"><polygon points="25,0 50,25 25,50 0,25" style="stroke-linecap: round; stroke-linejoin: round; stroke: rgb(34, 36, 42); stroke-width: 2px; fill: white; fill-opacity: 0.95;"/><path d="m 16,15 7.42857142857143,9.714285714285715 -7.42857142857143,9.714285714285715 3.428571428571429,0 5.714285714285715,-7.464228571428572 5.714285714285715,7.464228571428572 3.428571428571429,0 -7.42857142857143,-9.714285714285715 7.42857142857143,-9.714285714285715 -3.428571428571429,0 -5.714285714285715,7.464228571428572 -5.714285714285715,-7.464228571428572 -3.428571428571429,0 z" style="fill: rgb(34, 36, 42); stroke-linecap: round; stroke-linejoin: round; stroke: rgb(34, 36, 42); stroke-width: 1px;"/></g><rect class="djs-hit djs-hit-all" x="0" y="0" width="50" height="50" style="fill: none; stroke-opacity: 0; stroke: white; stroke-width: 15px;"/><rect x="2" y="2" rx="4" width="46" height="46" class="djs-outline" style="transform-box: fill-box; transform: rotate(45deg); transform-origin: center center; fill: none;"/></g></g><g class="djs-group"><g class="djs-element djs-shape" data-element-id="Event_1rcke2s" style="display: block;" transform="matrix(1 0 0 1 1462 422)"><g class="djs-visual"><circle cx="18" cy="18" r="18" style="stroke-linecap: round; stroke-linejoin: round; stroke: rgb(34, 36, 42); stroke-width: 4px; fill: white; fill-opacity: 0.95;"/></g><rect class="djs-hit djs-hit-all" x="0" y="0" width="36" height="36" style="fill: none; stroke-opacity: 0; stroke: white; stroke-width: 15px;"/><circle cx="18" cy="18" r="24" class="djs-outline" style="fill: none;"/></g></g><g class="djs-group"><g class="djs-element djs-connection" data-element-id="Association_1oj6dtb" style="display: block;"><g class="djs-visual"><path data-corner-radius="5" style="fill: none; stroke-linecap: round; stroke-linejoin: round; stroke: rgb(34, 36, 42); stroke-width: 2px; stroke-dasharray: 0, 5;" d="M1070,620L1070,660"/></g><rect x="1065" y="615" rx="4" width="10" height="50" class="djs-outline" style="fill: none;"/><path d="M1070,620L1070,660" class="djs-hit djs-hit-stroke" style="fill: none; stroke-opacity: 0; stroke: white; stroke-width: 15px;"/></g></g><g class="djs-group"><g class="djs-element djs-shape" data-element-id="TextAnnotation_0mhzgew" style="display: block;" transform="matrix(1 0 0 1 155 370)"><g class="djs-visual"><rect x="0" y="0" width="130" height="81" rx="0" ry="0" style="stroke-linecap: round; stroke-linejoin: round; stroke: none; stroke-width: 2px; fill: none;"/><path d="m 0, 0 m 10,0 l -10,0 l 0,81 l 10,0" style="fill: none; stroke-linecap: round; stroke-linejoin: round; stroke: rgb(34, 36, 42); stroke-width: 2px;"/><text lineHeight="1.2" class="djs-label" style="font-family: Arial, sans-serif; font-size: 12px; font-weight: normal; fill: rgb(34, 36, 42);"><tspan x="7" y="17.799999999999997">В окне "Диалоги" </tspan><tspan x="7" y="32.199999999999996">клиент нажимает </tspan><tspan x="7" y="46.599999999999994">кнопку "Говорить" </tspan><tspan x="7" y="60.99999999999999">(экран № 2)</tspan></text></g><rect class="djs-hit djs-hit-all" x="0" y="0" width="130" height="81" style="fill: none; stroke-opacity: 0; stroke: white; stroke-width: 15px;"/><rect x="-5" y="-5" rx="4" width="140" height="91" class="djs-outline" style="fill: none;"/></g></g><g class="djs-group"><g class="djs-element djs-shape" data-element-id="TextAnnotation_06l94oj" style="display: block;" transform="matrix(1 0 0 1 1280 80)"><g class="djs-visual"><rect x="0" y="0" width="100" height="243" rx="0" ry="0" style="stroke-linecap: round; stroke-linejoin: round; stroke: none; stroke-width: 2px; fill: none;"/><path d="m 0, 0 m 10,0 l -10,0 l 0,243 l 10,0" style="fill: none; stroke-linecap: round; stroke-linejoin: round; stroke: rgb(34, 36, 42); stroke-width: 2px;"/><text lineHeight="1.2" class="djs-label" style="font-family: Arial, sans-serif; font-size: 12px; font-weight: normal; fill: rgb(34, 36, 42);"><tspan x="7" y="17.799999999999997">После 10 </tspan><tspan x="7" y="32.199999999999996">ответов </tspan><tspan x="7" y="46.599999999999994">клиента </tspan><tspan x="7" y="60.99999999999999">система </tspan><tspan x="7" y="75.39999999999999">отображает </tspan><tspan x="7" y="89.79999999999998">всплывающее </tspan><tspan x="7" y="104.19999999999999">окно с </tspan><tspan x="7" y="118.6">поздравление</tspan><tspan x="7" y="133">м клиента с </tspan><tspan x="7" y="147.4">прохождением </tspan><tspan x="7" y="161.8">урока и </tspan><tspan x="7" y="176.20000000000002">сообщает о </tspan><tspan x="7" y="190.60000000000002">начислении </tspan><tspan x="7" y="205.00000000000003">ему 20 очков </tspan><tspan x="7" y="219.40000000000003">опыта (экран </tspan><tspan x="7" y="233.80000000000004">№ 5)</tspan></text></g><rect class="djs-hit djs-hit-all" x="0" y="0" width="100" height="243" style="fill: none; stroke-opacity: 0; stroke: white; stroke-width: 15px;"/><rect x="-5" y="-5" rx="4" width="110" height="253" class="djs-outline" style="fill: none;"/></g></g><g class="djs-group"><g class="djs-element djs-shape" data-element-id="TextAnnotation_1xy37gd" style="display: block;" transform="matrix(1 0 0 1 1436 320)"><g class="djs-visual"><rect x="0" y="0" width="88" height="55" rx="0" ry="0" style="stroke-linecap: round; stroke-linejoin: round; stroke: none; stroke-width: 2px; fill: none;"/><path d="m 0, 0 m 10,0 l -10,0 l 0,55 l 10,0" style="fill: none; stroke-linecap: round; stroke-linejoin: round; stroke: rgb(34, 36, 42); stroke-width: 2px;"/><text lineHeight="1.2" class="djs-label" style="font-family: Arial, sans-serif; font-size: 12px; font-weight: normal; fill: rgb(34, 36, 42);"><tspan x="7" y="17.799999999999997">Происходит </tspan><tspan x="7" y="32.199999999999996">возврат на </tspan><tspan x="7" y="46.599999999999994">экран № 1</tspan></text></g><rect class="djs-hit djs-hit-all" x="0" y="0" width="88" height="55" style="fill: none; stroke-opacity: 0; stroke: white; stroke-width: 15px;"/><rect x="-5" y="-5" rx="4" width="98" height="65" class="djs-outline" style="fill: none;"/></g></g><g class="djs-group"><g class="djs-element djs-shape" data-element-id="TextAnnotation_0ilcj55" style="display: block;" transform="matrix(1 0 0 1 300 220)"><g class="djs-visual"><rect x="0" y="0" width="100" height="185" rx="0" ry="0" style="stroke-linecap: round; stroke-linejoin: round; stroke: none; stroke-width: 2px; fill: none;"/><path d="m 0, 0 m 10,0 l -10,0 l 0,185 l 10,0" style="fill: none; stroke-linecap: round; stroke-linejoin: round; stroke: rgb(34, 36, 42); stroke-width: 2px;"/><text lineHeight="1.2" class="djs-label" style="font-family: Arial, sans-serif; font-size: 12px; font-weight: normal; fill: rgb(34, 36, 42);"><tspan x="7" y="17.799999999999997">Клиент </tspan><tspan x="7" y="32.199999999999996">начинает урок </tspan><tspan x="7" y="46.599999999999994">через выбор </tspan><tspan x="7" y="60.99999999999999">конкретной </tspan><tspan x="7" y="75.39999999999999">темы </tspan><tspan x="7" y="89.79999999999998">нажатием на </tspan><tspan x="7" y="104.19999999999999">кнопку "Тема" </tspan><tspan x="7" y="118.6">или случайной </tspan><tspan x="7" y="133">темы </tspan><tspan x="7" y="147.4">нажатием на </tspan><tspan x="7" y="161.8">кнопку "Старт"</tspan><tspan x="7" y="176.20000000000002">(экран № 3)</tspan></text></g><rect class="djs-hit djs-hit-all" x="0" y="0" width="100" height="185" style="fill: none; stroke-opacity: 0; stroke: white; stroke-width: 15px;"/><rect x="-5" y="-5" rx="4" width="110" height="195" class="djs-outline" style="fill: none;"/></g></g><g class="djs-group"><g class="djs-element djs-shape selected djs-element-hidden" data-element-id="TextAnnotation_0my6sww" style="display: block;" transform="matrix(1 0 0 1 700 250)"><g class="djs-visual"><rect x="0" y="0" width="230" height="73" rx="0" ry="0" style="stroke-linecap: round; stroke-linejoin: round; stroke: none; stroke-width: 2px; fill: none;"/><path d="m 0, 0 m 10,0 l -10,0 l 0,73 l 10,0" style="fill: none; stroke-linecap: round; stroke-linejoin: round; stroke: rgb(34, 36, 42); stroke-width: 2px;"/><text lineHeight="1.2" class="djs-label" style="font-family: Arial, sans-serif; font-size: 12px; font-weight: normal; fill: rgb(34, 36, 42);"><tspan x="7" y="17.799999999999997">Клиент обменялся 10-ю сообщениями </tspan><tspan x="7" y="32.199999999999996">- поздравление, клиент не обменялс</tspan><tspan x="7" y="46.599999999999994">я 10 сообщениями </tspan><tspan x="7" y="60.99999999999999">- завершение урока</tspan></text></g><rect class="djs-hit djs-hit-all" x="0" y="0" width="230" height="73" style="fill: none; stroke-opacity: 0; stroke: white; stroke-width: 15px;"/><rect x="-5" y="-5" rx="4" width="240" height="83" class="djs-outline" style="fill: none;"/></g></g><g class="djs-group"><g class="djs-element djs-connection" data-element-id="Flow_0e72ekg" style="display: block;"><g class="djs-visual"><defs><marker id="marker-6a65m4sqfjab0l1bn9d90lvpp" viewBox="0 0 20 20" refX="11" refY="10" markerWidth="10" markerHeight="10" orient="auto"><path d="M 1 5 L 11 10 L 1 15 Z" style="stroke-linecap: round; stroke-linejoin: round; stroke: rgb(34, 36, 42); stroke-width: 1px; fill: rgb(34, 36, 42);"/></marker></defs><path data-corner-radius="5" style="fill: none; stroke-linecap: round; stroke-linejoin: round; stroke: rgb(34, 36, 42); stroke-width: 2px; marker-end: url('#marker-6a65m4sqfjab0l1bn9d90lvpp');" d="M400,500L460,500"/></g><rect x="395" y="495" rx="4" width="70" height="10" class="djs-outline" style="fill: none;"/><path d="M400,500L460,500" class="djs-hit djs-hit-stroke" style="fill: none; stroke-opacity: 0; stroke: white; stroke-width: 15px;"/></g></g><g class="djs-group"><g class="djs-element djs-connection" data-element-id="Flow_0c3ahqm" style="display: block;"><g class="djs-visual"><defs><marker id="marker-eb7bn3aw4numl4l4jgb2q1qhy" viewBox="0 0 20 20" refX="11" refY="10" markerWidth="10" markerHeight="10" orient="auto"><path d="M 1 5 L 11 10 L 1 15 Z" style="stroke-linecap: round; stroke-linejoin: round; stroke: rgb(34, 36, 42); stroke-width: 1px; fill: rgb(34, 36, 42);"/></marker></defs><path data-corner-radius="5" style="fill: none; stroke-linecap: round; stroke-linejoin: round; stroke: rgb(34, 36, 42); stroke-width: 2px; marker-end: url('#marker-eb7bn3aw4numl4l4jgb2q1qhy');" d="M560,500L620,500"/></g><rect x="555" y="495" rx="4" width="70" height="10" class="djs-outline" style="fill: none;"/><path d="M560,500L620,500" class="djs-hit djs-hit-stroke" style="fill: none; stroke-opacity: 0; stroke: white; stroke-width: 15px;"/></g></g><g class="djs-group"><g class="djs-element djs-connection" data-element-id="Flow_1ght8rz" style="display: block;"><g class="djs-visual"><defs><marker id="marker-10rycognjvvqpwtgh4flr3rye" viewBox="0 0 20 20" refX="11" refY="10" markerWidth="10" markerHeight="10" orient="auto"><path d="M 1 5 L 11 10 L 1 15 Z" style="stroke-linecap: round; stroke-linejoin: round; stroke: rgb(34, 36, 42); stroke-width: 1px; fill: rgb(34, 36, 42);"/></marker></defs><path data-corner-radius="5" style="fill: none; stroke-linecap: round; stroke-linejoin: round; stroke: rgb(34, 36, 42); stroke-width: 2px; marker-end: url('#marker-10rycognjvvqpwtgh4flr3rye');" d="M1120,580L1175,580"/></g><rect x="1115" y="575" rx="4" width="65" height="10" class="djs-outline" style="fill: none;"/><path d="M1120,580L1175,580" class="djs-hit djs-hit-stroke" style="fill: none; stroke-opacity: 0; stroke: white; stroke-width: 15px;"/></g></g><g class="djs-group"><g class="djs-element djs-connection" data-element-id="Flow_0vcmkae" style="display: block;"><g class="djs-visual"><defs><marker id="marker-exrxhsvlh220nmt94sms3jmbc" viewBox="0 0 20 20" refX="11" refY="10" markerWidth="10" markerHeight="10" orient="auto"><path d="M 1 5 L 11 10 L 1 15 Z" style="stroke-linecap: round; stroke-linejoin: round; stroke: rgb(34, 36, 42); stroke-width: 1px; fill: rgb(34, 36, 42);"/></marker></defs><path data-corner-radius="5" style="fill: none; stroke-linecap: round; stroke-linejoin: round; stroke: rgb(34, 36, 42); stroke-width: 2px; marker-end: url('#marker-exrxhsvlh220nmt94sms3jmbc');" d="M1200,555L1200,495C1200,492.5,1202.5,490,1205,490L1280,490"/></g><rect x="1195" y="485" rx="4" width="90" height="75" class="djs-outline" style="fill: none;"/><path d="M1200,555L1200,490L1280,490" class="djs-hit djs-hit-stroke" style="fill: none; stroke-opacity: 0; stroke: white; stroke-width: 15px;"/></g></g><g class="djs-group"><g class="djs-element djs-connection" data-element-id="Flow_18akq2a" style="display: block;"><g class="djs-visual"><defs><marker id="marker-1j0c59zlhc0bnqodgin8xgs8a" viewBox="0 0 20 20" refX="11" refY="10" markerWidth="10" markerHeight="10" orient="auto"><path d="M 1 5 L 11 10 L 1 15 Z" style="stroke-linecap: round; stroke-linejoin: round; stroke: rgb(34, 36, 42); stroke-width: 1px; fill: rgb(34, 36, 42);"/></marker></defs><path data-corner-radius="5" style="fill: none; stroke-linecap: round; stroke-linejoin: round; stroke: rgb(34, 36, 42); stroke-width: 2px; marker-end: url('#marker-1j0c59zlhc0bnqodgin8xgs8a');" d="M1200,605L1200,665C1200,667.5,1202.5,670,1205,670L1280,670"/></g><rect x="1195" y="600" rx="4" width="90" height="75" class="djs-outline" style="fill: none;"/><path d="M1200,605L1200,670L1280,670" class="djs-hit djs-hit-stroke" style="fill: none; stroke-opacity: 0; stroke: white; stroke-width: 15px;"/></g></g><g class="djs-group"><g class="djs-element djs-connection" data-element-id="Flow_02d5y56" style="display: block;"><g class="djs-visual"><defs><marker id="marker-6jkjtibp3k7r4mgin7nfo6uo4" viewBox="0 0 20 20" refX="11" refY="10" markerWidth="10" markerHeight="10" orient="auto"><path d="M 1 5 L 11 10 L 1 15 Z" style="stroke-linecap: round; stroke-linejoin: round; stroke: rgb(34, 36, 42); stroke-width: 1px; fill: rgb(34, 36, 42);"/></marker></defs><path data-corner-radius="5" style="fill: none; stroke-linecap: round; stroke-linejoin: round; stroke: rgb(34, 36, 42); stroke-width: 2px; marker-end: url('#marker-6jkjtibp3k7r4mgin7nfo6uo4');" d="M1330,710L1330,815C1330,817.5,1327.5,820,1325,820L675,820C672.5,820,670,817.5,670,815L670,540"/></g><rect x="665" y="535" rx="4" width="670" height="290" class="djs-outline" style="fill: none;"/><path d="M1330,710L1330,820L670,820L670,540" class="djs-hit djs-hit-stroke" style="fill: none; stroke-opacity: 0; stroke: white; stroke-width: 15px;"/></g></g><g class="djs-group"><g class="djs-element djs-connection" data-element-id="Flow_1urh4lh" style="display: block;"><g class="djs-visual"><defs><marker id="marker-4n7u7o1eue5qp6zgpg6zevzeh" viewBox="0 0 20 20" refX="11" refY="10" markerWidth="10" markerHeight="10" orient="auto"><path d="M 1 5 L 11 10 L 1 15 Z" style="stroke-linecap: round; stroke-linejoin: round; stroke: rgb(34, 36, 42); stroke-width: 1px; fill: rgb(34, 36, 42);"/></marker></defs><path data-corner-radius="5" style="fill: none; stroke-linecap: round; stroke-linejoin: round; stroke: rgb(34, 36, 42); stroke-width: 2px; marker-end: url('#marker-4n7u7o1eue5qp6zgpg6zevzeh');" d="M720,500L775,500"/></g><rect x="715" y="495" rx="4" width="65" height="10" class="djs-outline" style="fill: none;"/><path d="M720,500L775,500" class="djs-hit djs-hit-stroke" style="fill: none; stroke-opacity: 0; stroke: white; stroke-width: 15px;"/></g></g><g class="djs-group"><g class="djs-element djs-connection" data-element-id="Flow_1om8crm" style="display: block;"><g class="djs-visual"><defs><marker id="marker-8jz2mtlguy4eyppshi1fmzww3" viewBox="0 0 20 20" refX="11" refY="10" markerWidth="10" markerHeight="10" orient="auto"><path d="M 1 5 L 11 10 L 1 15 Z" style="stroke-linecap: round; stroke-linejoin: round; stroke: rgb(34, 36, 42); stroke-width: 1px; fill: rgb(34, 36, 42);"/></marker></defs><path data-corner-radius="5" style="fill: none; stroke-linecap: round; stroke-linejoin: round; stroke: rgb(34, 36, 42); stroke-width: 2px; marker-end: url('#marker-8jz2mtlguy4eyppshi1fmzww3');" d="M800,475L800,405C800,402.5,802.5,400,805,400L1280,400"/></g><rect x="795" y="395" rx="4" width="490" height="85" class="djs-outline" style="fill: none;"/><path d="M800,475L800,400L1280,400" class="djs-hit djs-hit-stroke" style="fill: none; stroke-opacity: 0; stroke: white; stroke-width: 15px;"/></g></g><g class="djs-group"><g class="djs-element djs-connection" data-element-id="Flow_0966939" style="display: block;"><g class="djs-visual"><defs><marker id="marker-3pt0sk2p3agoz7zk61c3czrn9" viewBox="0 0 20 20" refX="11" refY="10" markerWidth="10" markerHeight="10" orient="auto"><path d="M 1 5 L 11 10 L 1 15 Z" style="stroke-linecap: round; stroke-linejoin: round; stroke: rgb(34, 36, 42); stroke-width: 1px; fill: rgb(34, 36, 42);"/></marker></defs><path data-corner-radius="5" style="fill: none; stroke-linecap: round; stroke-linejoin: round; stroke: rgb(34, 36, 42); stroke-width: 2px; marker-end: url('#marker-3pt0sk2p3agoz7zk61c3czrn9');" d="M1380,400L1416,400C1418.5,400,1421,402.5,1421,405L1421,435C1421,437.5,1423.5,440,1426,440L1462,440"/></g><rect x="1375" y="395" rx="4" width="92" height="50" class="djs-outline" style="fill: none;"/><path d="M1380,400L1421,400L1421,440L1462,440" class="djs-hit djs-hit-stroke" style="fill: none; stroke-opacity: 0; stroke: white; stroke-width: 15px;"/></g></g><g class="djs-group"><g class="djs-element djs-connection" data-element-id="Flow_022nhjc" style="display: block;"><g class="djs-visual"><defs><marker id="marker-em1aqa1kkdgtbhb7mjbexhzvx" viewBox="0 0 20 20" refX="11" refY="10" markerWidth="10" markerHeight="10" orient="auto"><path d="M 1 5 L 11 10 L 1 15 Z" style="stroke-linecap: round; stroke-linejoin: round; stroke: rgb(34, 36, 42); stroke-width: 1px; fill: rgb(34, 36, 42);"/></marker></defs><path data-corner-radius="5" style="fill: none; stroke-linecap: round; stroke-linejoin: round; stroke: rgb(34, 36, 42); stroke-width: 2px; marker-end: url('#marker-em1aqa1kkdgtbhb7mjbexhzvx');" d="M1380,490L1416,490C1418.5,490,1421,487.5,1421,485L1421,445C1421,442.5,1423.5,440,1426,440L1462,440"/></g><rect x="1375" y="435" rx="4" width="92" height="60" class="djs-outline" style="fill: none;"/><path d="M1380,490L1421,490L1421,440L1462,440" class="djs-hit djs-hit-stroke" style="fill: none; stroke-opacity: 0; stroke: white; stroke-width: 15px;"/></g></g><g class="djs-group"><g class="djs-element djs-connection" data-element-id="Flow_048zllw" style="display: block;"><g class="djs-visual"><defs><marker id="marker-8fobfp94prrcimfy9zlvchc65" viewBox="0 0 20 20" refX="11" refY="10" markerWidth="10" markerHeight="10" orient="auto"><path d="M 1 5 L 11 10 L 1 15 Z" style="stroke-linecap: round; stroke-linejoin: round; stroke: rgb(34, 36, 42); stroke-width: 1px; fill: rgb(34, 36, 42);"/></marker></defs><path data-corner-radius="5" style="fill: none; stroke-linecap: round; stroke-linejoin: round; stroke: rgb(34, 36, 42); stroke-width: 2px; marker-end: url('#marker-8fobfp94prrcimfy9zlvchc65');" d="M238,500L300,500"/></g><rect x="233" y="495" rx="4" width="72" height="10" class="djs-outline" style="fill: none;"/><path d="M238,500L300,500" class="djs-hit djs-hit-stroke" style="fill: none; stroke-opacity: 0; stroke: white; stroke-width: 15px;"/></g></g><g class="djs-group"><g class="djs-element djs-connection" data-element-id="Association_03d5ro4" style="display: block;"><g class="djs-visual"><path data-corner-radius="5" style="fill: none; stroke-linecap: round; stroke-linejoin: round; stroke: rgb(34, 36, 42); stroke-width: 2px; stroke-dasharray: 0, 5;" d="M220,482L220,451"/></g><rect x="215" y="446" rx="4" width="10" height="41" class="djs-outline" style="fill: none;"/><path d="M220,482L220,451" class="djs-hit djs-hit-stroke" style="fill: none; stroke-opacity: 0; stroke: white; stroke-width: 15px;"/></g></g><g class="djs-group"><g class="djs-element djs-connection" data-element-id="Association_0efjkzg" style="display: block;"><g class="djs-visual"><path data-corner-radius="5" style="fill: none; stroke-linecap: round; stroke-linejoin: round; stroke: rgb(34, 36, 42); stroke-width: 2px; stroke-dasharray: 0, 5;" d="M1330,360L1330,323"/></g><rect x="1325" y="318" rx="4" width="10" height="47" class="djs-outline" style="fill: none;"/><path d="M1330,360L1330,323" class="djs-hit djs-hit-stroke" style="fill: none; stroke-opacity: 0; stroke: white; stroke-width: 15px;"/></g></g><g class="djs-group"><g class="djs-element djs-connection" data-element-id="Association_1brf8ph" style="display: block;"><g class="djs-visual"><path data-corner-radius="5" style="fill: none; stroke-linecap: round; stroke-linejoin: round; stroke: rgb(34, 36, 42); stroke-width: 2px; stroke-dasharray: 0, 5;" d="M1479,422L1476,375"/></g><rect x="1471" y="370" rx="4" width="13" height="57" class="djs-outline" style="fill: none;"/><path d="M1479,422L1476,375" class="djs-hit djs-hit-stroke" style="fill: none; stroke-opacity: 0; stroke: white; stroke-width: 15px;"/></g></g><g class="djs-group"><g class="djs-element djs-connection" data-element-id="Association_10a86e9" style="display: block;"><g class="djs-visual"><path data-corner-radius="5" style="fill: none; stroke-linecap: round; stroke-linejoin: round; stroke: rgb(34, 36, 42); stroke-width: 2px; stroke-dasharray: 0, 5;" d="M350,460L350,405"/></g><rect x="345" y="400" rx="4" width="10" height="65" class="djs-outline" style="fill: none;"/><path d="M350,460L350,405" class="djs-hit djs-hit-stroke" style="fill: none; stroke-opacity: 0; stroke: white; stroke-width: 15px;"/></g></g><g class="djs-group"><g class="djs-element djs-connection" data-element-id="Association_0x3d8ek" style="display: block;"><g class="djs-visual"><path data-corner-radius="5" style="fill: none; stroke-linecap: round; stroke-linejoin: round; stroke: rgb(34, 36, 42); stroke-width: 2px; stroke-dasharray: 0, 5;" d="M800,475L800,323"/></g><rect x="795" y="318" rx="4" width="10" height="162" class="djs-outline" style="fill: none;"/><path d="M800,475L800,323" class="djs-hit djs-hit-stroke" style="fill: none; stroke-opacity: 0; stroke: white; stroke-width: 15px;"/></g></g><g class="djs-group"><g class="djs-element djs-connection" data-element-id="Flow_18ri1xb" style="display: block;"><g class="djs-visual"><defs><marker id="marker-2nom91cjg6mg7ggb12n430okc" viewBox="0 0 20 20" refX="11" refY="10" markerWidth="10" markerHeight="10" orient="auto"><path d="M 1 5 L 11 10 L 1 15 Z" style="stroke-linecap: round; stroke-linejoin: round; stroke: rgb(34, 36, 42); stroke-width: 1px; fill: rgb(34, 36, 42);"/></marker></defs><path data-corner-radius="5" style="fill: none; stroke-linecap: round; stroke-linejoin: round; stroke: rgb(34, 36, 42); stroke-width: 2px; marker-end: url('#marker-2nom91cjg6mg7ggb12n430okc');" d="M800,525L800,575C800,577.5,802.5,580,805,580L1020,580"/></g><rect x="795" y="520" rx="4" width="230" height="65" class="djs-outline" style="fill: none;"/><path d="M800,525L800,580L1020,580" class="djs-hit djs-hit-stroke" style="fill: none; stroke-opacity: 0; stroke: white; stroke-width: 15px;"/></g></g><g class="djs-group"><g class="djs-element djs-shape" data-element-id="TextAnnotation_0cisqy0" style="display: block;" transform="matrix(1 0 0 1 1020 660)"><g class="djs-visual"><rect x="0" y="0" width="100" height="127" rx="0" ry="0" style="stroke-linecap: round; stroke-linejoin: round; stroke: none; stroke-width: 2px; fill: none;"/><path d="m 0, 0 m 10,0 l -10,0 l 0,127 l 10,0" style="fill: none; stroke-linecap: round; stroke-linejoin: round; stroke: rgb(34, 36, 42); stroke-width: 2px;"/><text lineHeight="1.2" class="djs-label" style="font-family: Arial, sans-serif; font-size: 12px; font-weight: normal; fill: rgb(34, 36, 42);"><tspan x="7" y="17.799999999999997">Клиент </tspan><tspan x="7" y="32.199999999999996">нажимает на </tspan><tspan x="7" y="46.599999999999994">крестик на </tspan><tspan x="7" y="60.99999999999999">экране № 4 </tspan><tspan x="7" y="75.39999999999999">для </tspan><tspan x="7" y="89.79999999999998">принудительно</tspan><tspan x="7" y="104.19999999999999">го завершения</tspan><tspan x="7" y="118.6">урока</tspan></text></g><rect class="djs-hit djs-hit-all" x="0" y="0" width="100" height="127" style="fill: none; stroke-opacity: 0; stroke: white; stroke-width: 15px;"/><rect x="-5" y="-5" rx="4" width="110" height="137" class="djs-outline" style="fill: none;"/></g></g></svg>